<mxfile host="app.diagrams.net" modified="2024-04-30T23:51:39.239Z" agent="Mozilla/5.0 (Windows NT 10.0; Win64; x64) AppleWebKit/537.36 (KHTML, like Gecko) Chrome/121.0.0.0 Safari/537.36 OPR/107.0.0.0" etag="ykDf0pnscuQXNLxI-HWX" version="24.3.1" type="google">
  <diagram name="Página-1" id="h-yIFglehZsYKQuAEMty">
    <mxGraphModel grid="0" page="0" gridSize="10" guides="1" tooltips="1" connect="1" arrows="1" fold="1" pageScale="1" pageWidth="850" pageHeight="1100" math="0" shadow="0">
      <root>
        <mxCell id="0" />
        <mxCell id="1" parent="0" />
        <mxCell id="MDy1XEi2g01a_AjAgKbW-68" style="edgeStyle=orthogonalEdgeStyle;rounded=0;orthogonalLoop=1;jettySize=auto;html=1;exitX=1;exitY=0.5;exitDx=0;exitDy=0;entryX=0;entryY=0.5;entryDx=0;entryDy=0;" edge="1" parent="1" source="bGLIadX0kHBUWa4-QgWf-80" target="MDy1XEi2g01a_AjAgKbW-60">
          <mxGeometry relative="1" as="geometry">
            <Array as="points">
              <mxPoint x="306" y="200" />
              <mxPoint x="306" y="122" />
            </Array>
          </mxGeometry>
        </mxCell>
        <mxCell id="bGLIadX0kHBUWa4-QgWf-82" value="" style="group;movable=1;resizable=1;rotatable=1;deletable=1;editable=1;locked=0;connectable=1;" connectable="0" vertex="1" parent="1">
          <mxGeometry x="56" y="-282" width="239" height="192" as="geometry" />
        </mxCell>
        <mxCell id="i5Qo9Ydj3Eo_f_7UgnNF-50" style="edgeStyle=orthogonalEdgeStyle;rounded=0;orthogonalLoop=1;jettySize=auto;html=1;exitX=0.5;exitY=0;exitDx=0;exitDy=0;entryX=0.5;entryY=1;entryDx=0;entryDy=0;" edge="1" parent="bGLIadX0kHBUWa4-QgWf-82" source="bGLIadX0kHBUWa4-QgWf-58" target="bGLIadX0kHBUWa4-QgWf-69">
          <mxGeometry relative="1" as="geometry">
            <Array as="points">
              <mxPoint x="106" y="-50" />
              <mxPoint x="-45" y="-50" />
            </Array>
          </mxGeometry>
        </mxCell>
        <mxCell id="MDy1XEi2g01a_AjAgKbW-17" style="edgeStyle=orthogonalEdgeStyle;rounded=0;orthogonalLoop=1;jettySize=auto;html=1;exitX=0.5;exitY=1;exitDx=0;exitDy=0;entryX=0.5;entryY=0;entryDx=0;entryDy=0;" edge="1" parent="bGLIadX0kHBUWa4-QgWf-82" source="bGLIadX0kHBUWa4-QgWf-58" target="MDy1XEi2g01a_AjAgKbW-14">
          <mxGeometry relative="1" as="geometry" />
        </mxCell>
        <mxCell id="bGLIadX0kHBUWa4-QgWf-57" value="" style="group;movable=1;resizable=1;rotatable=1;deletable=1;editable=1;locked=0;connectable=1;" connectable="0" vertex="1" parent="bGLIadX0kHBUWa4-QgWf-82">
          <mxGeometry x="54" width="104" height="53" as="geometry" />
        </mxCell>
        <mxCell id="QPRDpCNhih8pYjzk8NWz-48" value="" style="group" connectable="0" vertex="1" parent="bGLIadX0kHBUWa4-QgWf-57">
          <mxGeometry y="-1" width="104" height="53" as="geometry" />
        </mxCell>
        <mxCell id="bGLIadX0kHBUWa4-QgWf-58" value="" style="rounded=0;whiteSpace=wrap;html=1;movable=1;resizable=1;rotatable=1;deletable=1;editable=1;locked=0;connectable=1;" vertex="1" parent="QPRDpCNhih8pYjzk8NWz-48">
          <mxGeometry width="104" height="53" as="geometry" />
        </mxCell>
        <mxCell id="bGLIadX0kHBUWa4-QgWf-59" value="Usuario" style="text;strokeColor=none;fillColor=none;html=1;align=center;verticalAlign=middle;whiteSpace=wrap;rounded=0;fontSize=16;movable=1;resizable=1;rotatable=1;deletable=1;editable=1;locked=0;connectable=1;" vertex="1" parent="QPRDpCNhih8pYjzk8NWz-48">
          <mxGeometry x="22" y="11.5" width="60" height="30" as="geometry" />
        </mxCell>
        <mxCell id="bGLIadX0kHBUWa4-QgWf-60" style="edgeStyle=none;curved=1;rounded=0;orthogonalLoop=1;jettySize=auto;html=1;exitX=1;exitY=1;exitDx=0;exitDy=0;fontSize=12;startSize=8;endSize=8;movable=1;resizable=1;rotatable=1;deletable=1;editable=1;locked=0;connectable=1;" edge="1" parent="QPRDpCNhih8pYjzk8NWz-48" source="bGLIadX0kHBUWa4-QgWf-58" target="bGLIadX0kHBUWa4-QgWf-58">
          <mxGeometry relative="1" as="geometry" />
        </mxCell>
        <mxCell id="bGLIadX0kHBUWa4-QgWf-69" value="" style="group;movable=1;resizable=1;rotatable=1;deletable=1;editable=1;locked=0;connectable=1;" connectable="0" vertex="1" parent="bGLIadX0kHBUWa4-QgWf-82">
          <mxGeometry x="-92" y="-176" width="94" height="57" as="geometry" />
        </mxCell>
        <mxCell id="bGLIadX0kHBUWa4-QgWf-70" value="" style="ellipse;whiteSpace=wrap;html=1;movable=1;resizable=1;rotatable=1;deletable=1;editable=1;locked=0;connectable=1;" vertex="1" parent="bGLIadX0kHBUWa4-QgWf-69">
          <mxGeometry width="94" height="57" as="geometry" />
        </mxCell>
        <mxCell id="bGLIadX0kHBUWa4-QgWf-71" value="ID" style="text;strokeColor=none;fillColor=none;html=1;align=center;verticalAlign=middle;whiteSpace=wrap;rounded=0;fontSize=16;movable=1;resizable=1;rotatable=1;deletable=1;editable=1;locked=0;connectable=1;" vertex="1" parent="bGLIadX0kHBUWa4-QgWf-69">
          <mxGeometry x="25.636363636363637" y="17.8125" width="42.72727272727273" height="21.375" as="geometry" />
        </mxCell>
        <mxCell id="bGLIadX0kHBUWa4-QgWf-72" style="edgeStyle=none;curved=1;rounded=0;orthogonalLoop=1;jettySize=auto;html=1;exitX=1;exitY=1;exitDx=0;exitDy=0;fontSize=12;startSize=8;endSize=8;movable=1;resizable=1;rotatable=1;deletable=1;editable=1;locked=0;connectable=1;" edge="1" parent="bGLIadX0kHBUWa4-QgWf-69" source="bGLIadX0kHBUWa4-QgWf-70" target="bGLIadX0kHBUWa4-QgWf-70">
          <mxGeometry relative="1" as="geometry" />
        </mxCell>
        <mxCell id="bGLIadX0kHBUWa4-QgWf-74" value="" style="group;movable=1;resizable=1;rotatable=1;deletable=1;editable=1;locked=0;connectable=1;" connectable="0" vertex="1" parent="bGLIadX0kHBUWa4-QgWf-82">
          <mxGeometry x="207" y="-178" width="108" height="68" as="geometry" />
        </mxCell>
        <mxCell id="bGLIadX0kHBUWa4-QgWf-75" value="" style="ellipse;whiteSpace=wrap;html=1;movable=1;resizable=1;rotatable=1;deletable=1;editable=1;locked=0;connectable=1;" vertex="1" parent="bGLIadX0kHBUWa4-QgWf-74">
          <mxGeometry width="108.00000000000001" height="68" as="geometry" />
        </mxCell>
        <mxCell id="bGLIadX0kHBUWa4-QgWf-76" value="Contraseña" style="text;strokeColor=none;fillColor=none;html=1;align=center;verticalAlign=middle;whiteSpace=wrap;rounded=0;fontSize=16;movable=1;resizable=1;rotatable=1;deletable=1;editable=1;locked=0;connectable=1;" vertex="1" parent="bGLIadX0kHBUWa4-QgWf-74">
          <mxGeometry x="28.454545454545457" y="21.25" width="49.09090909090909" height="25.5" as="geometry" />
        </mxCell>
        <mxCell id="bGLIadX0kHBUWa4-QgWf-77" style="edgeStyle=none;curved=1;rounded=0;orthogonalLoop=1;jettySize=auto;html=1;exitX=1;exitY=1;exitDx=0;exitDy=0;fontSize=12;startSize=8;endSize=8;movable=1;resizable=1;rotatable=1;deletable=1;editable=1;locked=0;connectable=1;" edge="1" parent="bGLIadX0kHBUWa4-QgWf-74" source="bGLIadX0kHBUWa4-QgWf-75" target="bGLIadX0kHBUWa4-QgWf-75">
          <mxGeometry relative="1" as="geometry" />
        </mxCell>
        <mxCell id="MDy1XEi2g01a_AjAgKbW-14" value="" style="rhombus;whiteSpace=wrap;html=1;" vertex="1" parent="bGLIadX0kHBUWa4-QgWf-82">
          <mxGeometry x="66" y="179" width="80" height="80" as="geometry" />
        </mxCell>
        <mxCell id="MDy1XEi2g01a_AjAgKbW-32" value="1" style="text;html=1;align=center;verticalAlign=middle;whiteSpace=wrap;rounded=0;" vertex="1" parent="bGLIadX0kHBUWa4-QgWf-82">
          <mxGeometry x="82" y="147" width="60" height="30" as="geometry" />
        </mxCell>
        <mxCell id="QPRDpCNhih8pYjzk8NWz-84" style="edgeStyle=orthogonalEdgeStyle;rounded=0;orthogonalLoop=1;jettySize=auto;html=1;exitX=0.5;exitY=0;exitDx=0;exitDy=0;entryX=0.5;entryY=1;entryDx=0;entryDy=0;" edge="1" parent="bGLIadX0kHBUWa4-QgWf-82" source="bGLIadX0kHBUWa4-QgWf-58" target="bGLIadX0kHBUWa4-QgWf-75">
          <mxGeometry relative="1" as="geometry">
            <Array as="points">
              <mxPoint x="106" y="-50" />
              <mxPoint x="261" y="-50" />
            </Array>
          </mxGeometry>
        </mxCell>
        <mxCell id="bGLIadX0kHBUWa4-QgWf-84" value="" style="group" connectable="0" vertex="1" parent="1">
          <mxGeometry x="115" y="304" width="94" height="57" as="geometry" />
        </mxCell>
        <mxCell id="bGLIadX0kHBUWa4-QgWf-85" value="" style="ellipse;whiteSpace=wrap;html=1;" vertex="1" parent="bGLIadX0kHBUWa4-QgWf-84">
          <mxGeometry width="94" height="57" as="geometry" />
        </mxCell>
        <mxCell id="bGLIadX0kHBUWa4-QgWf-86" value="Nombre" style="text;strokeColor=none;fillColor=none;html=1;align=center;verticalAlign=middle;whiteSpace=wrap;rounded=0;fontSize=16;" vertex="1" parent="bGLIadX0kHBUWa4-QgWf-84">
          <mxGeometry x="25.63636363636364" y="17.8125" width="42.72727272727273" height="21.375" as="geometry" />
        </mxCell>
        <mxCell id="bGLIadX0kHBUWa4-QgWf-100" value="" style="group" connectable="0" vertex="1" parent="1">
          <mxGeometry x="-28" y="304" width="94" height="57" as="geometry" />
        </mxCell>
        <mxCell id="bGLIadX0kHBUWa4-QgWf-101" value="" style="ellipse;whiteSpace=wrap;html=1;" vertex="1" parent="bGLIadX0kHBUWa4-QgWf-100">
          <mxGeometry width="94" height="57" as="geometry" />
        </mxCell>
        <mxCell id="bGLIadX0kHBUWa4-QgWf-102" value="Ubicacion" style="text;strokeColor=none;fillColor=none;html=1;align=center;verticalAlign=middle;whiteSpace=wrap;rounded=0;fontSize=16;" vertex="1" parent="bGLIadX0kHBUWa4-QgWf-100">
          <mxGeometry x="25.636363636363637" y="17.8125" width="42.72727272727273" height="21.375" as="geometry" />
        </mxCell>
        <mxCell id="bGLIadX0kHBUWa4-QgWf-103" value="" style="group" connectable="0" vertex="1" parent="1">
          <mxGeometry x="-107" y="397" width="94" height="57" as="geometry" />
        </mxCell>
        <mxCell id="bGLIadX0kHBUWa4-QgWf-104" value="" style="ellipse;whiteSpace=wrap;html=1;" vertex="1" parent="bGLIadX0kHBUWa4-QgWf-103">
          <mxGeometry width="94" height="57" as="geometry" />
        </mxCell>
        <mxCell id="bGLIadX0kHBUWa4-QgWf-105" value="Domicilio" style="text;strokeColor=none;fillColor=none;html=1;align=center;verticalAlign=middle;whiteSpace=wrap;rounded=0;fontSize=16;" vertex="1" parent="bGLIadX0kHBUWa4-QgWf-103">
          <mxGeometry x="25.636363636363637" y="17.8125" width="42.72727272727273" height="21.375" as="geometry" />
        </mxCell>
        <mxCell id="bGLIadX0kHBUWa4-QgWf-106" value="" style="group" connectable="0" vertex="1" parent="1">
          <mxGeometry x="46" y="401.29" width="94" height="57" as="geometry" />
        </mxCell>
        <mxCell id="bGLIadX0kHBUWa4-QgWf-107" value="" style="ellipse;whiteSpace=wrap;html=1;" vertex="1" parent="bGLIadX0kHBUWa4-QgWf-106">
          <mxGeometry width="94" height="57" as="geometry" />
        </mxCell>
        <mxCell id="bGLIadX0kHBUWa4-QgWf-108" value="Localidad" style="text;strokeColor=none;fillColor=none;html=1;align=center;verticalAlign=middle;whiteSpace=wrap;rounded=0;fontSize=16;" vertex="1" parent="bGLIadX0kHBUWa4-QgWf-106">
          <mxGeometry x="25.636363636363637" y="17.8125" width="42.72727272727273" height="21.375" as="geometry" />
        </mxCell>
        <mxCell id="9F6NOnJwmwG0ibiyGM8l-4" value="" style="group" connectable="0" vertex="1" parent="1">
          <mxGeometry x="-586" y="-264.19" width="109" height="68" as="geometry" />
        </mxCell>
        <mxCell id="9F6NOnJwmwG0ibiyGM8l-5" value="" style="ellipse;whiteSpace=wrap;html=1;" vertex="1" parent="9F6NOnJwmwG0ibiyGM8l-4">
          <mxGeometry width="109.00000000000001" height="68" as="geometry" />
        </mxCell>
        <mxCell id="9F6NOnJwmwG0ibiyGM8l-6" value="Dirección" style="text;strokeColor=none;fillColor=none;html=1;align=center;verticalAlign=middle;whiteSpace=wrap;rounded=0;fontSize=16;" vertex="1" parent="9F6NOnJwmwG0ibiyGM8l-4">
          <mxGeometry x="29.72727272727273" y="21.25" width="49.54545454545455" height="25.5" as="geometry" />
        </mxCell>
        <mxCell id="9F6NOnJwmwG0ibiyGM8l-29" value="" style="group" connectable="0" vertex="1" parent="1">
          <mxGeometry x="-293" y="-299" width="120" height="60" as="geometry" />
        </mxCell>
        <mxCell id="fgX9kcdW40fM9QlcyEOr-1" value="" style="rounded=0;whiteSpace=wrap;html=1;" vertex="1" parent="9F6NOnJwmwG0ibiyGM8l-29">
          <mxGeometry width="120" height="60" as="geometry" />
        </mxCell>
        <mxCell id="9F6NOnJwmwG0ibiyGM8l-2" value="Proveedor" style="text;strokeColor=none;fillColor=none;html=1;align=center;verticalAlign=middle;whiteSpace=wrap;rounded=0;fontSize=16;" vertex="1" parent="9F6NOnJwmwG0ibiyGM8l-29">
          <mxGeometry x="30" y="15" width="60" height="30" as="geometry" />
        </mxCell>
        <mxCell id="9F6NOnJwmwG0ibiyGM8l-33" value="" style="group" connectable="0" vertex="1" parent="1">
          <mxGeometry x="581" y="-15" width="120" height="60" as="geometry" />
        </mxCell>
        <mxCell id="9F6NOnJwmwG0ibiyGM8l-34" value="" style="rounded=0;whiteSpace=wrap;html=1;" vertex="1" parent="9F6NOnJwmwG0ibiyGM8l-33">
          <mxGeometry width="120" height="60" as="geometry" />
        </mxCell>
        <mxCell id="9F6NOnJwmwG0ibiyGM8l-35" value="Producto" style="text;strokeColor=none;fillColor=none;html=1;align=center;verticalAlign=middle;whiteSpace=wrap;rounded=0;fontSize=16;" vertex="1" parent="9F6NOnJwmwG0ibiyGM8l-33">
          <mxGeometry x="30" y="15" width="60" height="30" as="geometry" />
        </mxCell>
        <mxCell id="9F6NOnJwmwG0ibiyGM8l-39" value="" style="group;movable=1;resizable=1;rotatable=1;deletable=1;editable=1;locked=0;connectable=1;" connectable="0" vertex="1" parent="1">
          <mxGeometry x="751" y="56" width="94" height="57" as="geometry" />
        </mxCell>
        <mxCell id="9F6NOnJwmwG0ibiyGM8l-40" value="" style="ellipse;whiteSpace=wrap;html=1;movable=1;resizable=1;rotatable=1;deletable=1;editable=1;locked=0;connectable=1;" vertex="1" parent="9F6NOnJwmwG0ibiyGM8l-39">
          <mxGeometry width="94" height="57" as="geometry" />
        </mxCell>
        <mxCell id="9F6NOnJwmwG0ibiyGM8l-41" value="ID" style="text;strokeColor=none;fillColor=none;html=1;align=center;verticalAlign=middle;whiteSpace=wrap;rounded=0;fontSize=16;movable=1;resizable=1;rotatable=1;deletable=1;editable=1;locked=0;connectable=1;" vertex="1" parent="9F6NOnJwmwG0ibiyGM8l-39">
          <mxGeometry x="25.636363636363637" y="17.8125" width="42.72727272727273" height="21.375" as="geometry" />
        </mxCell>
        <mxCell id="9F6NOnJwmwG0ibiyGM8l-42" style="edgeStyle=none;curved=1;rounded=0;orthogonalLoop=1;jettySize=auto;html=1;exitX=1;exitY=1;exitDx=0;exitDy=0;fontSize=12;startSize=8;endSize=8;movable=1;resizable=1;rotatable=1;deletable=1;editable=1;locked=0;connectable=1;" edge="1" parent="9F6NOnJwmwG0ibiyGM8l-39" source="9F6NOnJwmwG0ibiyGM8l-40" target="9F6NOnJwmwG0ibiyGM8l-40">
          <mxGeometry relative="1" as="geometry" />
        </mxCell>
        <mxCell id="i5Qo9Ydj3Eo_f_7UgnNF-10" value="" style="group" connectable="0" vertex="1" parent="1">
          <mxGeometry x="-468" y="-220" width="106" height="69" as="geometry" />
        </mxCell>
        <mxCell id="i5Qo9Ydj3Eo_f_7UgnNF-8" value="" style="group" connectable="0" vertex="1" parent="i5Qo9Ydj3Eo_f_7UgnNF-10">
          <mxGeometry x="6" y="6" width="94" height="57" as="geometry" />
        </mxCell>
        <mxCell id="i5Qo9Ydj3Eo_f_7UgnNF-4" value="" style="ellipse;whiteSpace=wrap;html=1;movable=1;resizable=1;rotatable=1;deletable=1;editable=1;locked=0;connectable=1;" vertex="1" parent="i5Qo9Ydj3Eo_f_7UgnNF-8">
          <mxGeometry width="94" height="57" as="geometry" />
        </mxCell>
        <mxCell id="i5Qo9Ydj3Eo_f_7UgnNF-5" value="Cod. IVA" style="text;strokeColor=none;fillColor=none;html=1;align=center;verticalAlign=middle;whiteSpace=wrap;rounded=0;fontSize=16;movable=1;resizable=1;rotatable=1;deletable=1;editable=1;locked=0;connectable=1;" vertex="1" parent="i5Qo9Ydj3Eo_f_7UgnNF-8">
          <mxGeometry x="25.636363636363626" y="17.8125" width="42.72727272727273" height="21.375" as="geometry" />
        </mxCell>
        <mxCell id="i5Qo9Ydj3Eo_f_7UgnNF-13" value="" style="group" connectable="0" vertex="1" parent="1">
          <mxGeometry x="-638" y="-348" width="106" height="71.81" as="geometry" />
        </mxCell>
        <mxCell id="i5Qo9Ydj3Eo_f_7UgnNF-14" value="" style="group" connectable="0" vertex="1" parent="i5Qo9Ydj3Eo_f_7UgnNF-13">
          <mxGeometry x="-3.4036697247706424" y="-5.91" width="102.11009174311927" height="68.81" as="geometry" />
        </mxCell>
        <mxCell id="i5Qo9Ydj3Eo_f_7UgnNF-12" value="" style="ellipse;whiteSpace=wrap;html=1;" vertex="1" parent="i5Qo9Ydj3Eo_f_7UgnNF-14">
          <mxGeometry width="102.11009174311927" height="68.81" as="geometry" />
        </mxCell>
        <mxCell id="9F6NOnJwmwG0ibiyGM8l-22" value="" style="ellipse;whiteSpace=wrap;html=1;" vertex="1" parent="i5Qo9Ydj3Eo_f_7UgnNF-14">
          <mxGeometry x="5.4036697247706424" y="5.9" width="91.3" height="57" as="geometry" />
        </mxCell>
        <mxCell id="9F6NOnJwmwG0ibiyGM8l-23" value="N° Tel" style="text;strokeColor=none;fillColor=none;html=1;align=center;verticalAlign=middle;whiteSpace=wrap;rounded=0;fontSize=16;" vertex="1" parent="i5Qo9Ydj3Eo_f_7UgnNF-14">
          <mxGeometry x="26.93199717713476" y="23.719999999999946" width="48.23785462244178" height="21.38" as="geometry" />
        </mxCell>
        <mxCell id="i5Qo9Ydj3Eo_f_7UgnNF-16" value="" style="group" connectable="0" vertex="1" parent="1">
          <mxGeometry x="-462" y="-306" width="94" height="57" as="geometry" />
        </mxCell>
        <mxCell id="9F6NOnJwmwG0ibiyGM8l-8" value="" style="ellipse;whiteSpace=wrap;html=1;movable=1;resizable=1;rotatable=1;deletable=1;editable=1;locked=0;connectable=1;" vertex="1" parent="i5Qo9Ydj3Eo_f_7UgnNF-16">
          <mxGeometry width="94" height="57" as="geometry" />
        </mxCell>
        <mxCell id="9F6NOnJwmwG0ibiyGM8l-9" value="Nombre" style="text;strokeColor=none;fillColor=none;html=1;align=center;verticalAlign=middle;whiteSpace=wrap;rounded=0;fontSize=16;movable=1;resizable=1;rotatable=1;deletable=1;editable=1;locked=0;connectable=1;" vertex="1" parent="i5Qo9Ydj3Eo_f_7UgnNF-16">
          <mxGeometry x="25.636363636363626" y="17.8125" width="42.72727272727273" height="21.375" as="geometry" />
        </mxCell>
        <mxCell id="i5Qo9Ydj3Eo_f_7UgnNF-20" value="" style="ellipse;whiteSpace=wrap;html=1;movable=1;resizable=1;rotatable=1;deletable=1;editable=1;locked=0;connectable=1;" vertex="1" parent="1">
          <mxGeometry x="759" y="-35" width="94" height="57" as="geometry" />
        </mxCell>
        <mxCell id="i5Qo9Ydj3Eo_f_7UgnNF-21" value="Stock" style="text;strokeColor=none;fillColor=none;html=1;align=center;verticalAlign=middle;whiteSpace=wrap;rounded=0;fontSize=16;movable=1;resizable=1;rotatable=1;deletable=1;editable=1;locked=0;connectable=1;" vertex="1" parent="1">
          <mxGeometry x="784.6363636363635" y="-17.1875" width="42.72727272727273" height="21.375" as="geometry" />
        </mxCell>
        <mxCell id="i5Qo9Ydj3Eo_f_7UgnNF-27" style="edgeStyle=orthogonalEdgeStyle;rounded=0;orthogonalLoop=1;jettySize=auto;html=1;exitX=1;exitY=0;exitDx=0;exitDy=0;entryX=0;entryY=0.5;entryDx=0;entryDy=0;" edge="1" parent="1" source="9F6NOnJwmwG0ibiyGM8l-34" target="9F6NOnJwmwG0ibiyGM8l-37">
          <mxGeometry relative="1" as="geometry" />
        </mxCell>
        <mxCell id="i5Qo9Ydj3Eo_f_7UgnNF-28" style="edgeStyle=orthogonalEdgeStyle;rounded=0;orthogonalLoop=1;jettySize=auto;html=1;exitX=1;exitY=0.75;exitDx=0;exitDy=0;entryX=0;entryY=0.5;entryDx=0;entryDy=0;" edge="1" parent="1" source="9F6NOnJwmwG0ibiyGM8l-34" target="i5Qo9Ydj3Eo_f_7UgnNF-20">
          <mxGeometry relative="1" as="geometry">
            <Array as="points">
              <mxPoint x="701" y="-6" />
              <mxPoint x="728" y="-6" />
            </Array>
          </mxGeometry>
        </mxCell>
        <mxCell id="i5Qo9Ydj3Eo_f_7UgnNF-29" style="edgeStyle=orthogonalEdgeStyle;rounded=0;orthogonalLoop=1;jettySize=auto;html=1;exitX=1;exitY=1;exitDx=0;exitDy=0;entryX=0;entryY=0.5;entryDx=0;entryDy=0;" edge="1" parent="1" source="9F6NOnJwmwG0ibiyGM8l-34" target="9F6NOnJwmwG0ibiyGM8l-39">
          <mxGeometry relative="1" as="geometry" />
        </mxCell>
        <mxCell id="i5Qo9Ydj3Eo_f_7UgnNF-34" value="" style="group" connectable="0" vertex="1" parent="1">
          <mxGeometry x="-462" y="-387" width="98" height="57" as="geometry" />
        </mxCell>
        <mxCell id="i5Qo9Ydj3Eo_f_7UgnNF-1" value="" style="ellipse;whiteSpace=wrap;html=1;" vertex="1" parent="i5Qo9Ydj3Eo_f_7UgnNF-34">
          <mxGeometry width="98" height="57" as="geometry" />
        </mxCell>
        <mxCell id="i5Qo9Ydj3Eo_f_7UgnNF-2" value="CUIT" style="text;strokeColor=none;fillColor=none;html=1;align=center;verticalAlign=middle;whiteSpace=wrap;rounded=0;fontSize=16;" vertex="1" parent="i5Qo9Ydj3Eo_f_7UgnNF-34">
          <mxGeometry x="24.193846153846152" y="17.809999999999945" width="49.60307692307692" height="21.38" as="geometry" />
        </mxCell>
        <mxCell id="i5Qo9Ydj3Eo_f_7UgnNF-35" value="" style="group" connectable="0" vertex="1" parent="1">
          <mxGeometry x="-568" y="-428.19" width="89" height="54" as="geometry" />
        </mxCell>
        <mxCell id="i5Qo9Ydj3Eo_f_7UgnNF-11" value="" style="ellipse;whiteSpace=wrap;html=1;" vertex="1" parent="i5Qo9Ydj3Eo_f_7UgnNF-35">
          <mxGeometry width="89" height="54" as="geometry" />
        </mxCell>
        <mxCell id="i5Qo9Ydj3Eo_f_7UgnNF-19" value="&lt;font style=&quot;font-size: 16px;&quot;&gt;Provincia&lt;/font&gt;" style="text;html=1;align=center;verticalAlign=middle;whiteSpace=wrap;rounded=0;" vertex="1" parent="i5Qo9Ydj3Eo_f_7UgnNF-35">
          <mxGeometry x="14.5" y="12" width="60" height="30" as="geometry" />
        </mxCell>
        <mxCell id="i5Qo9Ydj3Eo_f_7UgnNF-37" style="edgeStyle=orthogonalEdgeStyle;rounded=0;orthogonalLoop=1;jettySize=auto;html=1;exitX=0.5;exitY=0;exitDx=0;exitDy=0;entryX=1;entryY=0.5;entryDx=0;entryDy=0;" edge="1" parent="1" source="fgX9kcdW40fM9QlcyEOr-1" target="i5Qo9Ydj3Eo_f_7UgnNF-11">
          <mxGeometry relative="1" as="geometry">
            <Array as="points">
              <mxPoint x="-293" y="-299" />
              <mxPoint x="-293" y="-401" />
            </Array>
          </mxGeometry>
        </mxCell>
        <mxCell id="i5Qo9Ydj3Eo_f_7UgnNF-39" style="edgeStyle=orthogonalEdgeStyle;rounded=0;orthogonalLoop=1;jettySize=auto;html=1;exitX=0.25;exitY=0;exitDx=0;exitDy=0;entryX=1;entryY=0.5;entryDx=0;entryDy=0;" edge="1" parent="1" source="fgX9kcdW40fM9QlcyEOr-1" target="i5Qo9Ydj3Eo_f_7UgnNF-1">
          <mxGeometry relative="1" as="geometry">
            <Array as="points">
              <mxPoint x="-293" y="-299" />
              <mxPoint x="-293" y="-358" />
            </Array>
          </mxGeometry>
        </mxCell>
        <mxCell id="i5Qo9Ydj3Eo_f_7UgnNF-40" style="edgeStyle=orthogonalEdgeStyle;rounded=0;orthogonalLoop=1;jettySize=auto;html=1;exitX=0;exitY=0;exitDx=0;exitDy=0;entryX=1;entryY=0.5;entryDx=0;entryDy=0;" edge="1" parent="1" source="fgX9kcdW40fM9QlcyEOr-1" target="i5Qo9Ydj3Eo_f_7UgnNF-12">
          <mxGeometry relative="1" as="geometry" />
        </mxCell>
        <mxCell id="i5Qo9Ydj3Eo_f_7UgnNF-41" style="edgeStyle=orthogonalEdgeStyle;rounded=0;orthogonalLoop=1;jettySize=auto;html=1;exitX=0;exitY=0.25;exitDx=0;exitDy=0;entryX=1;entryY=0.5;entryDx=0;entryDy=0;" edge="1" parent="1" source="fgX9kcdW40fM9QlcyEOr-1" target="9F6NOnJwmwG0ibiyGM8l-8">
          <mxGeometry relative="1" as="geometry">
            <Array as="points">
              <mxPoint x="-293" y="-277" />
              <mxPoint x="-330" y="-277" />
            </Array>
          </mxGeometry>
        </mxCell>
        <mxCell id="i5Qo9Ydj3Eo_f_7UgnNF-42" style="edgeStyle=orthogonalEdgeStyle;rounded=0;orthogonalLoop=1;jettySize=auto;html=1;exitX=0;exitY=1;exitDx=0;exitDy=0;entryX=1;entryY=0.5;entryDx=0;entryDy=0;" edge="1" parent="1" source="fgX9kcdW40fM9QlcyEOr-1" target="9F6NOnJwmwG0ibiyGM8l-5">
          <mxGeometry relative="1" as="geometry">
            <Array as="points">
              <mxPoint x="-293" y="-230" />
            </Array>
          </mxGeometry>
        </mxCell>
        <mxCell id="i5Qo9Ydj3Eo_f_7UgnNF-43" style="edgeStyle=orthogonalEdgeStyle;rounded=0;orthogonalLoop=1;jettySize=auto;html=1;exitX=0.25;exitY=1;exitDx=0;exitDy=0;entryX=1;entryY=0.5;entryDx=0;entryDy=0;" edge="1" parent="1" source="fgX9kcdW40fM9QlcyEOr-1" target="i5Qo9Ydj3Eo_f_7UgnNF-4">
          <mxGeometry relative="1" as="geometry">
            <Array as="points">
              <mxPoint x="-292" y="-239" />
              <mxPoint x="-292" y="-185" />
            </Array>
          </mxGeometry>
        </mxCell>
        <mxCell id="i5Qo9Ydj3Eo_f_7UgnNF-59" value="" style="group" connectable="0" vertex="1" parent="1">
          <mxGeometry x="163" y="-558" width="130.82" height="84" as="geometry" />
        </mxCell>
        <mxCell id="i5Qo9Ydj3Eo_f_7UgnNF-54" value="" style="ellipse;whiteSpace=wrap;html=1;" vertex="1" parent="i5Qo9Ydj3Eo_f_7UgnNF-59">
          <mxGeometry x="4.41" width="122" height="84" as="geometry" />
        </mxCell>
        <mxCell id="i5Qo9Ydj3Eo_f_7UgnNF-55" value="Nombre&lt;div&gt;Inicio de sesión&lt;/div&gt;" style="text;strokeColor=none;fillColor=none;html=1;align=center;verticalAlign=middle;whiteSpace=wrap;rounded=0;fontSize=16;" vertex="1" parent="i5Qo9Ydj3Eo_f_7UgnNF-59">
          <mxGeometry y="24" width="130.82" height="24.75" as="geometry" />
        </mxCell>
        <mxCell id="i5Qo9Ydj3Eo_f_7UgnNF-64" value="" style="group" connectable="0" vertex="1" parent="1">
          <mxGeometry x="16.999999999999986" y="-561" width="130.82" height="84" as="geometry" />
        </mxCell>
        <mxCell id="i5Qo9Ydj3Eo_f_7UgnNF-65" value="" style="ellipse;whiteSpace=wrap;html=1;" vertex="1" parent="i5Qo9Ydj3Eo_f_7UgnNF-64">
          <mxGeometry x="4.41" width="122" height="84" as="geometry" />
        </mxCell>
        <mxCell id="i5Qo9Ydj3Eo_f_7UgnNF-66" value="&lt;div&gt;Hora&lt;/div&gt;&lt;div&gt;Inicio de sesión&lt;/div&gt;" style="text;strokeColor=none;fillColor=none;html=1;align=center;verticalAlign=middle;whiteSpace=wrap;rounded=0;fontSize=16;" vertex="1" parent="i5Qo9Ydj3Eo_f_7UgnNF-64">
          <mxGeometry y="24" width="130.82" height="24.75" as="geometry" />
        </mxCell>
        <mxCell id="MDy1XEi2g01a_AjAgKbW-4" value="" style="group" connectable="0" vertex="1" parent="1">
          <mxGeometry x="889.05" y="37" width="94" height="57" as="geometry" />
        </mxCell>
        <mxCell id="MDy1XEi2g01a_AjAgKbW-5" value="" style="ellipse;whiteSpace=wrap;html=1;movable=1;resizable=1;rotatable=1;deletable=1;editable=1;locked=0;connectable=1;" vertex="1" parent="MDy1XEi2g01a_AjAgKbW-4">
          <mxGeometry width="94" height="57" as="geometry" />
        </mxCell>
        <mxCell id="MDy1XEi2g01a_AjAgKbW-6" value="Costo" style="text;strokeColor=none;fillColor=none;html=1;align=center;verticalAlign=middle;whiteSpace=wrap;rounded=0;fontSize=16;movable=1;resizable=1;rotatable=1;deletable=1;editable=1;locked=0;connectable=1;" vertex="1" parent="MDy1XEi2g01a_AjAgKbW-4">
          <mxGeometry x="25.636363636363626" y="17.8125" width="42.72727272727273" height="21.375" as="geometry" />
        </mxCell>
        <mxCell id="MDy1XEi2g01a_AjAgKbW-7" value="" style="group" connectable="0" vertex="1" parent="1">
          <mxGeometry x="900" y="-122" width="94" height="57" as="geometry" />
        </mxCell>
        <mxCell id="MDy1XEi2g01a_AjAgKbW-8" value="" style="ellipse;whiteSpace=wrap;html=1;movable=1;resizable=1;rotatable=1;deletable=1;editable=1;locked=0;connectable=1;" vertex="1" parent="MDy1XEi2g01a_AjAgKbW-7">
          <mxGeometry width="94" height="57" as="geometry" />
        </mxCell>
        <mxCell id="MDy1XEi2g01a_AjAgKbW-9" value="IVA%" style="text;strokeColor=none;fillColor=none;html=1;align=center;verticalAlign=middle;whiteSpace=wrap;rounded=0;fontSize=16;movable=1;resizable=1;rotatable=1;deletable=1;editable=1;locked=0;connectable=1;" vertex="1" parent="MDy1XEi2g01a_AjAgKbW-7">
          <mxGeometry x="25.636363636363626" y="17.8125" width="42.72727272727273" height="21.375" as="geometry" />
        </mxCell>
        <mxCell id="MDy1XEi2g01a_AjAgKbW-10" value="" style="group" connectable="0" vertex="1" parent="1">
          <mxGeometry x="1010" y="1" width="94" height="57" as="geometry" />
        </mxCell>
        <mxCell id="MDy1XEi2g01a_AjAgKbW-11" value="" style="ellipse;whiteSpace=wrap;html=1;movable=1;resizable=1;rotatable=1;deletable=1;editable=1;locked=0;connectable=1;" vertex="1" parent="MDy1XEi2g01a_AjAgKbW-10">
          <mxGeometry width="94" height="57" as="geometry" />
        </mxCell>
        <mxCell id="MDy1XEi2g01a_AjAgKbW-12" value="Precio&lt;div&gt;Publico&lt;/div&gt;" style="text;strokeColor=none;fillColor=none;html=1;align=center;verticalAlign=middle;whiteSpace=wrap;rounded=0;fontSize=16;movable=1;resizable=1;rotatable=1;deletable=1;editable=1;locked=0;connectable=1;" vertex="1" parent="MDy1XEi2g01a_AjAgKbW-10">
          <mxGeometry x="25.636363636363626" y="17.8125" width="42.72727272727273" height="21.375" as="geometry" />
        </mxCell>
        <mxCell id="MDy1XEi2g01a_AjAgKbW-21" style="edgeStyle=orthogonalEdgeStyle;rounded=0;orthogonalLoop=1;jettySize=auto;html=1;exitX=1;exitY=0.5;exitDx=0;exitDy=0;entryX=0;entryY=0.5;entryDx=0;entryDy=0;" edge="1" parent="1" source="MDy1XEi2g01a_AjAgKbW-13" target="9F6NOnJwmwG0ibiyGM8l-34">
          <mxGeometry relative="1" as="geometry" />
        </mxCell>
        <mxCell id="MDy1XEi2g01a_AjAgKbW-13" value="" style="rhombus;whiteSpace=wrap;html=1;" vertex="1" parent="1">
          <mxGeometry x="320" y="-172" width="80" height="80" as="geometry" />
        </mxCell>
        <mxCell id="MDy1XEi2g01a_AjAgKbW-22" style="edgeStyle=orthogonalEdgeStyle;rounded=0;orthogonalLoop=1;jettySize=auto;html=1;exitX=0;exitY=0.5;exitDx=0;exitDy=0;" edge="1" parent="1" source="MDy1XEi2g01a_AjAgKbW-15">
          <mxGeometry relative="1" as="geometry">
            <Array as="points">
              <mxPoint x="-173" y="-263" />
            </Array>
            <mxPoint x="-173" y="-263" as="targetPoint" />
          </mxGeometry>
        </mxCell>
        <mxCell id="MDy1XEi2g01a_AjAgKbW-15" value="Gestiona" style="rhombus;whiteSpace=wrap;html=1;" vertex="1" parent="1">
          <mxGeometry x="-53" y="-303" width="80" height="80" as="geometry" />
        </mxCell>
        <mxCell id="MDy1XEi2g01a_AjAgKbW-19" style="edgeStyle=orthogonalEdgeStyle;rounded=0;orthogonalLoop=1;jettySize=auto;html=1;exitX=1;exitY=1;exitDx=0;exitDy=0;entryX=0;entryY=0.5;entryDx=0;entryDy=0;" edge="1" parent="1" source="bGLIadX0kHBUWa4-QgWf-58" target="MDy1XEi2g01a_AjAgKbW-13">
          <mxGeometry relative="1" as="geometry">
            <Array as="points">
              <mxPoint x="214" y="-133" />
              <mxPoint x="320" y="-133" />
            </Array>
          </mxGeometry>
        </mxCell>
        <mxCell id="MDy1XEi2g01a_AjAgKbW-20" style="edgeStyle=orthogonalEdgeStyle;rounded=0;orthogonalLoop=1;jettySize=auto;html=1;exitX=0.5;exitY=1;exitDx=0;exitDy=0;entryX=0.5;entryY=0;entryDx=0;entryDy=0;" edge="1" parent="1" source="MDy1XEi2g01a_AjAgKbW-14" target="bGLIadX0kHBUWa4-QgWf-80">
          <mxGeometry relative="1" as="geometry" />
        </mxCell>
        <mxCell id="MDy1XEi2g01a_AjAgKbW-25" style="edgeStyle=orthogonalEdgeStyle;rounded=0;orthogonalLoop=1;jettySize=auto;html=1;exitX=1;exitY=0.5;exitDx=0;exitDy=0;entryX=0;entryY=1;entryDx=0;entryDy=0;" edge="1" parent="1" source="MDy1XEi2g01a_AjAgKbW-23" target="9F6NOnJwmwG0ibiyGM8l-34">
          <mxGeometry relative="1" as="geometry">
            <Array as="points">
              <mxPoint x="471" y="14" />
              <mxPoint x="471" y="45" />
            </Array>
          </mxGeometry>
        </mxCell>
        <mxCell id="MDy1XEi2g01a_AjAgKbW-24" style="edgeStyle=orthogonalEdgeStyle;rounded=0;orthogonalLoop=1;jettySize=auto;html=1;exitX=1;exitY=1;exitDx=0;exitDy=0;entryX=0;entryY=0.5;entryDx=0;entryDy=0;" edge="1" parent="1" source="fgX9kcdW40fM9QlcyEOr-1" target="MDy1XEi2g01a_AjAgKbW-23">
          <mxGeometry relative="1" as="geometry">
            <Array as="points">
              <mxPoint x="-173" y="-103" />
              <mxPoint x="7" y="-103" />
              <mxPoint x="7" y="14" />
            </Array>
          </mxGeometry>
        </mxCell>
        <mxCell id="MDy1XEi2g01a_AjAgKbW-27" value="" style="group" connectable="0" vertex="1" parent="1">
          <mxGeometry x="276" y="-30" width="92" height="88" as="geometry" />
        </mxCell>
        <mxCell id="MDy1XEi2g01a_AjAgKbW-23" value="" style="rhombus;whiteSpace=wrap;html=1;" vertex="1" parent="MDy1XEi2g01a_AjAgKbW-27">
          <mxGeometry width="92" height="88" as="geometry" />
        </mxCell>
        <mxCell id="MDy1XEi2g01a_AjAgKbW-26" value="Proporciona" style="text;html=1;align=center;verticalAlign=middle;whiteSpace=wrap;rounded=0;" vertex="1" parent="MDy1XEi2g01a_AjAgKbW-27">
          <mxGeometry x="15" y="29" width="60" height="30" as="geometry" />
        </mxCell>
        <mxCell id="MDy1XEi2g01a_AjAgKbW-28" value="1" style="text;html=1;align=center;verticalAlign=middle;whiteSpace=wrap;rounded=0;" vertex="1" parent="1">
          <mxGeometry x="220" y="-10.5" width="60" height="30" as="geometry" />
        </mxCell>
        <mxCell id="MDy1XEi2g01a_AjAgKbW-29" value="1..N" style="text;html=1;align=center;verticalAlign=middle;whiteSpace=wrap;rounded=0;" vertex="1" parent="1">
          <mxGeometry x="358" y="-10.5" width="60" height="30" as="geometry" />
        </mxCell>
        <mxCell id="MDy1XEi2g01a_AjAgKbW-31" value="Posee" style="text;html=1;align=center;verticalAlign=middle;whiteSpace=wrap;rounded=0;" vertex="1" parent="1">
          <mxGeometry x="330" y="-147" width="60" height="30" as="geometry" />
        </mxCell>
        <mxCell id="MDy1XEi2g01a_AjAgKbW-34" value="" style="group" connectable="0" vertex="1" parent="1">
          <mxGeometry x="255" y="301" width="121" height="68" as="geometry" />
        </mxCell>
        <mxCell id="MDy1XEi2g01a_AjAgKbW-35" value="" style="ellipse;whiteSpace=wrap;html=1;" vertex="1" parent="MDy1XEi2g01a_AjAgKbW-34">
          <mxGeometry width="121.00000000000001" height="68" as="geometry" />
        </mxCell>
        <mxCell id="MDy1XEi2g01a_AjAgKbW-36" value="&lt;font style=&quot;font-size: 14px;&quot;&gt;Fecha_Registro&lt;/font&gt;" style="text;strokeColor=none;fillColor=none;html=1;align=center;verticalAlign=middle;whiteSpace=wrap;rounded=0;fontSize=16;" vertex="1" parent="MDy1XEi2g01a_AjAgKbW-34">
          <mxGeometry x="17.05" y="21.247017543859645" width="86.9" height="25.5059649122807" as="geometry" />
        </mxCell>
        <mxCell id="MDy1XEi2g01a_AjAgKbW-39" value="" style="group" connectable="0" vertex="1" parent="1">
          <mxGeometry x="581" y="-385" width="120" height="60" as="geometry" />
        </mxCell>
        <mxCell id="MDy1XEi2g01a_AjAgKbW-40" value="" style="rounded=0;whiteSpace=wrap;html=1;" vertex="1" parent="MDy1XEi2g01a_AjAgKbW-39">
          <mxGeometry width="120" height="60" as="geometry" />
        </mxCell>
        <mxCell id="MDy1XEi2g01a_AjAgKbW-41" value="Ventas" style="text;strokeColor=none;fillColor=none;html=1;align=center;verticalAlign=middle;whiteSpace=wrap;rounded=0;fontSize=16;" vertex="1" parent="MDy1XEi2g01a_AjAgKbW-39">
          <mxGeometry x="30" y="15" width="60" height="30" as="geometry" />
        </mxCell>
        <mxCell id="MDy1XEi2g01a_AjAgKbW-47" style="edgeStyle=orthogonalEdgeStyle;rounded=0;orthogonalLoop=1;jettySize=auto;html=1;exitX=0.5;exitY=1;exitDx=0;exitDy=0;entryX=0;entryY=0;entryDx=0;entryDy=0;" edge="1" parent="1" source="MDy1XEi2g01a_AjAgKbW-42" target="9F6NOnJwmwG0ibiyGM8l-34">
          <mxGeometry relative="1" as="geometry" />
        </mxCell>
        <mxCell id="MDy1XEi2g01a_AjAgKbW-42" value="" style="rhombus;whiteSpace=wrap;html=1;" vertex="1" parent="1">
          <mxGeometry x="541" y="-223.5" width="80" height="80" as="geometry" />
        </mxCell>
        <mxCell id="MDy1XEi2g01a_AjAgKbW-43" value="" style="rhombus;whiteSpace=wrap;html=1;" vertex="1" parent="1">
          <mxGeometry x="335" y="-295" width="80" height="80" as="geometry" />
        </mxCell>
        <mxCell id="MDy1XEi2g01a_AjAgKbW-44" style="edgeStyle=orthogonalEdgeStyle;rounded=0;orthogonalLoop=1;jettySize=auto;html=1;exitX=1;exitY=0.5;exitDx=0;exitDy=0;entryX=0;entryY=0.5;entryDx=0;entryDy=0;" edge="1" parent="1" source="bGLIadX0kHBUWa4-QgWf-57" target="MDy1XEi2g01a_AjAgKbW-43">
          <mxGeometry relative="1" as="geometry" />
        </mxCell>
        <mxCell id="MDy1XEi2g01a_AjAgKbW-46" style="edgeStyle=orthogonalEdgeStyle;rounded=0;orthogonalLoop=1;jettySize=auto;html=1;exitX=0;exitY=1;exitDx=0;exitDy=0;entryX=0.5;entryY=0;entryDx=0;entryDy=0;" edge="1" parent="1" source="MDy1XEi2g01a_AjAgKbW-40" target="MDy1XEi2g01a_AjAgKbW-42">
          <mxGeometry relative="1" as="geometry" />
        </mxCell>
        <mxCell id="MDy1XEi2g01a_AjAgKbW-48" value="Registra" style="text;html=1;align=center;verticalAlign=middle;whiteSpace=wrap;rounded=0;" vertex="1" parent="1">
          <mxGeometry x="345" y="-266" width="60" height="30" as="geometry" />
        </mxCell>
        <mxCell id="MDy1XEi2g01a_AjAgKbW-49" value="Contiene" style="text;html=1;align=center;verticalAlign=middle;whiteSpace=wrap;rounded=0;" vertex="1" parent="1">
          <mxGeometry x="551" y="-198.5" width="60" height="30" as="geometry" />
        </mxCell>
        <mxCell id="MDy1XEi2g01a_AjAgKbW-50" value="1" style="text;html=1;align=center;verticalAlign=middle;whiteSpace=wrap;rounded=0;" vertex="1" parent="1">
          <mxGeometry x="290" y="-280" width="60" height="30" as="geometry" />
        </mxCell>
        <mxCell id="MDy1XEi2g01a_AjAgKbW-51" value="1" style="text;html=1;align=center;verticalAlign=middle;whiteSpace=wrap;rounded=0;" vertex="1" parent="1">
          <mxGeometry x="543" y="-254" width="60" height="30" as="geometry" />
        </mxCell>
        <mxCell id="MDy1XEi2g01a_AjAgKbW-53" value="1..N" style="text;html=1;align=center;verticalAlign=middle;whiteSpace=wrap;rounded=0;" vertex="1" parent="1">
          <mxGeometry x="536" y="-152" width="60" height="30" as="geometry" />
        </mxCell>
        <mxCell id="MDy1XEi2g01a_AjAgKbW-55" value="0..N" style="text;html=1;align=center;verticalAlign=middle;whiteSpace=wrap;rounded=0;" vertex="1" parent="1">
          <mxGeometry x="-96" y="-286.5" width="60" height="30" as="geometry" />
        </mxCell>
        <mxCell id="MDy1XEi2g01a_AjAgKbW-57" value="" style="ellipse;whiteSpace=wrap;html=1;movable=1;resizable=1;rotatable=1;deletable=1;editable=1;locked=0;connectable=1;" vertex="1" parent="1">
          <mxGeometry x="475" y="-515" width="94" height="57" as="geometry" />
        </mxCell>
        <mxCell id="MDy1XEi2g01a_AjAgKbW-59" value="N°_Ventas" style="text;html=1;align=center;verticalAlign=middle;whiteSpace=wrap;rounded=0;" vertex="1" parent="1">
          <mxGeometry x="488" y="-501.5" width="60" height="30" as="geometry" />
        </mxCell>
        <mxCell id="MDy1XEi2g01a_AjAgKbW-69" style="edgeStyle=orthogonalEdgeStyle;rounded=0;orthogonalLoop=1;jettySize=auto;html=1;exitX=1;exitY=0.5;exitDx=0;exitDy=0;entryX=0;entryY=0.75;entryDx=0;entryDy=0;" edge="1" parent="1" source="MDy1XEi2g01a_AjAgKbW-60" target="MDy1XEi2g01a_AjAgKbW-40">
          <mxGeometry relative="1" as="geometry">
            <Array as="points">
              <mxPoint x="523" y="122" />
              <mxPoint x="523" y="-340" />
            </Array>
          </mxGeometry>
        </mxCell>
        <mxCell id="MDy1XEi2g01a_AjAgKbW-60" value="" style="rhombus;whiteSpace=wrap;html=1;" vertex="1" parent="1">
          <mxGeometry x="363" y="82" width="80" height="80" as="geometry" />
        </mxCell>
        <mxCell id="MDy1XEi2g01a_AjAgKbW-61" value="Realizo" style="text;html=1;align=center;verticalAlign=middle;whiteSpace=wrap;rounded=0;" vertex="1" parent="1">
          <mxGeometry x="373" y="108" width="60" height="30" as="geometry" />
        </mxCell>
        <mxCell id="MDy1XEi2g01a_AjAgKbW-66" value="" style="group" connectable="0" vertex="1" parent="1">
          <mxGeometry x="-201" y="297" width="125" height="76" as="geometry" />
        </mxCell>
        <mxCell id="bGLIadX0kHBUWa4-QgWf-93" value="" style="ellipse;whiteSpace=wrap;html=1;" vertex="1" parent="MDy1XEi2g01a_AjAgKbW-66">
          <mxGeometry width="125" height="76" as="geometry" />
        </mxCell>
        <mxCell id="bGLIadX0kHBUWa4-QgWf-94" value="Nombre de la tienda" style="text;strokeColor=none;fillColor=none;html=1;align=center;verticalAlign=middle;whiteSpace=wrap;rounded=0;fontSize=16;" vertex="1" parent="MDy1XEi2g01a_AjAgKbW-66">
          <mxGeometry x="22" y="27.309999999999945" width="86" height="21.38" as="geometry" />
        </mxCell>
        <mxCell id="MDy1XEi2g01a_AjAgKbW-70" value="1" style="text;html=1;align=center;verticalAlign=middle;whiteSpace=wrap;rounded=0;" vertex="1" parent="1">
          <mxGeometry x="314" y="99" width="60" height="30" as="geometry" />
        </mxCell>
        <mxCell id="MDy1XEi2g01a_AjAgKbW-73" value="1..N" style="text;html=1;align=center;verticalAlign=middle;whiteSpace=wrap;rounded=0;" vertex="1" parent="1">
          <mxGeometry x="428" y="100" width="60" height="30" as="geometry" />
        </mxCell>
        <mxCell id="MDy1XEi2g01a_AjAgKbW-122" style="edgeStyle=orthogonalEdgeStyle;rounded=0;orthogonalLoop=1;jettySize=auto;html=1;entryX=0;entryY=0.25;entryDx=0;entryDy=0;exitX=1;exitY=0.5;exitDx=0;exitDy=0;" edge="1" parent="1">
          <mxGeometry relative="1" as="geometry">
            <Array as="points">
              <mxPoint x="415" y="-254.99" />
              <mxPoint x="465" y="-254.99" />
              <mxPoint x="465" y="-369.99" />
            </Array>
            <mxPoint x="415" y="-253.99" as="sourcePoint" />
            <mxPoint x="581" y="-369.99" as="targetPoint" />
          </mxGeometry>
        </mxCell>
        <mxCell id="MDy1XEi2g01a_AjAgKbW-74" value="1..N" style="text;html=1;align=center;verticalAlign=middle;whiteSpace=wrap;rounded=0;" vertex="1" parent="1">
          <mxGeometry x="398" y="-280" width="60" height="30" as="geometry" />
        </mxCell>
        <mxCell id="MDy1XEi2g01a_AjAgKbW-75" value="" style="group" connectable="0" vertex="1" parent="1">
          <mxGeometry x="-346" y="68" width="120" height="60" as="geometry" />
        </mxCell>
        <mxCell id="MDy1XEi2g01a_AjAgKbW-76" value="" style="rounded=0;whiteSpace=wrap;html=1;" vertex="1" parent="MDy1XEi2g01a_AjAgKbW-75">
          <mxGeometry width="120" height="60" as="geometry" />
        </mxCell>
        <mxCell id="MDy1XEi2g01a_AjAgKbW-77" value="Calendario" style="text;strokeColor=none;fillColor=none;html=1;align=center;verticalAlign=middle;whiteSpace=wrap;rounded=0;fontSize=16;" vertex="1" parent="MDy1XEi2g01a_AjAgKbW-75">
          <mxGeometry x="30" y="15" width="60" height="30" as="geometry" />
        </mxCell>
        <mxCell id="MDy1XEi2g01a_AjAgKbW-85" value="" style="group" connectable="0" vertex="1" parent="1">
          <mxGeometry x="891.9963302752294" y="-53" width="102.11009174311927" height="68.81" as="geometry" />
        </mxCell>
        <mxCell id="MDy1XEi2g01a_AjAgKbW-86" value="" style="ellipse;whiteSpace=wrap;html=1;" vertex="1" parent="MDy1XEi2g01a_AjAgKbW-85">
          <mxGeometry width="102.11009174311927" height="68.81" as="geometry" />
        </mxCell>
        <mxCell id="MDy1XEi2g01a_AjAgKbW-87" value="" style="ellipse;whiteSpace=wrap;html=1;" vertex="1" parent="MDy1XEi2g01a_AjAgKbW-85">
          <mxGeometry x="5.4036697247706424" y="5.9" width="91.3" height="57" as="geometry" />
        </mxCell>
        <mxCell id="MDy1XEi2g01a_AjAgKbW-88" value="Categoria" style="text;strokeColor=none;fillColor=none;html=1;align=center;verticalAlign=middle;whiteSpace=wrap;rounded=0;fontSize=16;" vertex="1" parent="MDy1XEi2g01a_AjAgKbW-85">
          <mxGeometry x="26.93199717713476" y="23.719999999999946" width="48.23785462244178" height="21.38" as="geometry" />
        </mxCell>
        <mxCell id="MDy1XEi2g01a_AjAgKbW-89" style="edgeStyle=orthogonalEdgeStyle;rounded=0;orthogonalLoop=1;jettySize=auto;html=1;exitX=1;exitY=0;exitDx=0;exitDy=0;entryX=0;entryY=0;entryDx=0;entryDy=0;" edge="1" parent="1" source="9F6NOnJwmwG0ibiyGM8l-34" target="MDy1XEi2g01a_AjAgKbW-86">
          <mxGeometry relative="1" as="geometry" />
        </mxCell>
        <mxCell id="MDy1XEi2g01a_AjAgKbW-90" style="edgeStyle=orthogonalEdgeStyle;rounded=0;orthogonalLoop=1;jettySize=auto;html=1;exitX=1;exitY=0.75;exitDx=0;exitDy=0;entryX=0;entryY=0.5;entryDx=0;entryDy=0;" edge="1" parent="1" source="9F6NOnJwmwG0ibiyGM8l-34" target="MDy1XEi2g01a_AjAgKbW-11">
          <mxGeometry relative="1" as="geometry" />
        </mxCell>
        <mxCell id="MDy1XEi2g01a_AjAgKbW-91" style="edgeStyle=orthogonalEdgeStyle;rounded=0;orthogonalLoop=1;jettySize=auto;html=1;exitX=1;exitY=0.75;exitDx=0;exitDy=0;entryX=0;entryY=0.5;entryDx=0;entryDy=0;" edge="1" parent="1" source="9F6NOnJwmwG0ibiyGM8l-34" target="MDy1XEi2g01a_AjAgKbW-5">
          <mxGeometry relative="1" as="geometry">
            <Array as="points">
              <mxPoint x="861" y="30" />
              <mxPoint x="861" y="66" />
            </Array>
          </mxGeometry>
        </mxCell>
        <mxCell id="MDy1XEi2g01a_AjAgKbW-92" value="" style="group" connectable="0" vertex="1" parent="1">
          <mxGeometry x="889.05" y="108" width="94" height="57" as="geometry" />
        </mxCell>
        <mxCell id="MDy1XEi2g01a_AjAgKbW-37" value="" style="ellipse;whiteSpace=wrap;html=1;movable=1;resizable=1;rotatable=1;deletable=1;editable=1;locked=0;connectable=1;" vertex="1" parent="MDy1XEi2g01a_AjAgKbW-92">
          <mxGeometry width="94" height="57" as="geometry" />
        </mxCell>
        <mxCell id="MDy1XEi2g01a_AjAgKbW-38" value="%Ganancia" style="text;html=1;align=center;verticalAlign=middle;whiteSpace=wrap;rounded=0;" vertex="1" parent="MDy1XEi2g01a_AjAgKbW-92">
          <mxGeometry x="17" y="13.5" width="60" height="30" as="geometry" />
        </mxCell>
        <mxCell id="MDy1XEi2g01a_AjAgKbW-93" style="edgeStyle=orthogonalEdgeStyle;rounded=0;orthogonalLoop=1;jettySize=auto;html=1;exitX=1;exitY=0.75;exitDx=0;exitDy=0;entryX=0;entryY=0.5;entryDx=0;entryDy=0;" edge="1" parent="1" source="9F6NOnJwmwG0ibiyGM8l-34" target="MDy1XEi2g01a_AjAgKbW-37">
          <mxGeometry relative="1" as="geometry">
            <Array as="points">
              <mxPoint x="861" y="30" />
              <mxPoint x="861" y="136" />
            </Array>
          </mxGeometry>
        </mxCell>
        <mxCell id="MDy1XEi2g01a_AjAgKbW-111" style="edgeStyle=orthogonalEdgeStyle;rounded=0;orthogonalLoop=1;jettySize=auto;html=1;exitX=1;exitY=0.5;exitDx=0;exitDy=0;entryX=0;entryY=0;entryDx=0;entryDy=0;" edge="1" parent="1" source="MDy1XEi2g01a_AjAgKbW-94" target="bGLIadX0kHBUWa4-QgWf-80">
          <mxGeometry relative="1" as="geometry" />
        </mxCell>
        <mxCell id="MDy1XEi2g01a_AjAgKbW-96" style="edgeStyle=orthogonalEdgeStyle;rounded=0;orthogonalLoop=1;jettySize=auto;html=1;exitX=0;exitY=0.5;exitDx=0;exitDy=0;entryX=1;entryY=0;entryDx=0;entryDy=0;" edge="1" parent="1" source="MDy1XEi2g01a_AjAgKbW-95" target="MDy1XEi2g01a_AjAgKbW-76">
          <mxGeometry relative="1" as="geometry">
            <Array as="points">
              <mxPoint x="-226" y="41" />
            </Array>
          </mxGeometry>
        </mxCell>
        <mxCell id="MDy1XEi2g01a_AjAgKbW-95" value="Visualiza" style="rhombus;whiteSpace=wrap;html=1;" vertex="1" parent="1">
          <mxGeometry x="-116" y="1" width="80" height="80" as="geometry" />
        </mxCell>
        <mxCell id="MDy1XEi2g01a_AjAgKbW-97" style="edgeStyle=orthogonalEdgeStyle;rounded=0;orthogonalLoop=1;jettySize=auto;html=1;exitX=0.5;exitY=0;exitDx=0;exitDy=0;entryX=0.5;entryY=1;entryDx=0;entryDy=0;" edge="1" parent="1" source="bGLIadX0kHBUWa4-QgWf-58" target="i5Qo9Ydj3Eo_f_7UgnNF-45">
          <mxGeometry relative="1" as="geometry" />
        </mxCell>
        <mxCell id="MDy1XEi2g01a_AjAgKbW-98" value="" style="group" connectable="0" vertex="1" parent="1">
          <mxGeometry x="115" y="-456" width="94" height="57" as="geometry" />
        </mxCell>
        <mxCell id="i5Qo9Ydj3Eo_f_7UgnNF-45" value="" style="ellipse;whiteSpace=wrap;html=1;" vertex="1" parent="MDy1XEi2g01a_AjAgKbW-98">
          <mxGeometry width="94" height="57" as="geometry" />
        </mxCell>
        <mxCell id="i5Qo9Ydj3Eo_f_7UgnNF-46" value="Nombre" style="text;strokeColor=none;fillColor=none;html=1;align=center;verticalAlign=middle;whiteSpace=wrap;rounded=0;fontSize=16;" vertex="1" parent="MDy1XEi2g01a_AjAgKbW-98">
          <mxGeometry x="25.636363636363626" y="17.8125" width="42.72727272727273" height="21.375" as="geometry" />
        </mxCell>
        <mxCell id="MDy1XEi2g01a_AjAgKbW-99" style="edgeStyle=orthogonalEdgeStyle;rounded=0;orthogonalLoop=1;jettySize=auto;html=1;exitX=0;exitY=1;exitDx=0;exitDy=0;entryX=1;entryY=0.5;entryDx=0;entryDy=0;" edge="1" parent="1" source="bGLIadX0kHBUWa4-QgWf-58" target="MDy1XEi2g01a_AjAgKbW-95">
          <mxGeometry relative="1" as="geometry" />
        </mxCell>
        <mxCell id="MDy1XEi2g01a_AjAgKbW-102" value="1" style="text;html=1;align=center;verticalAlign=middle;whiteSpace=wrap;rounded=0;" vertex="1" parent="1">
          <mxGeometry x="272" y="-156" width="60" height="30" as="geometry" />
        </mxCell>
        <mxCell id="MDy1XEi2g01a_AjAgKbW-103" value="0..N" style="text;html=1;align=center;verticalAlign=middle;whiteSpace=wrap;rounded=0;" vertex="1" parent="1">
          <mxGeometry x="383" y="-155" width="60" height="30" as="geometry" />
        </mxCell>
        <mxCell id="MDy1XEi2g01a_AjAgKbW-106" value="" style="group" connectable="0" vertex="1" parent="1">
          <mxGeometry x="532" y="-602" width="94" height="57" as="geometry" />
        </mxCell>
        <mxCell id="MDy1XEi2g01a_AjAgKbW-62" value="" style="ellipse;whiteSpace=wrap;html=1;movable=1;resizable=1;rotatable=1;deletable=1;editable=1;locked=0;connectable=1;" vertex="1" parent="MDy1XEi2g01a_AjAgKbW-106">
          <mxGeometry width="94" height="57" as="geometry" />
        </mxCell>
        <mxCell id="MDy1XEi2g01a_AjAgKbW-64" value="Fecha_Venta" style="text;html=1;align=center;verticalAlign=middle;whiteSpace=wrap;rounded=0;" vertex="1" parent="MDy1XEi2g01a_AjAgKbW-106">
          <mxGeometry x="17" y="13.5" width="60" height="30" as="geometry" />
        </mxCell>
        <mxCell id="MDy1XEi2g01a_AjAgKbW-110" style="edgeStyle=orthogonalEdgeStyle;rounded=0;orthogonalLoop=1;jettySize=auto;html=1;exitX=1;exitY=1;exitDx=0;exitDy=0;entryX=0;entryY=0.5;entryDx=0;entryDy=0;" edge="1" parent="1" source="MDy1XEi2g01a_AjAgKbW-76" target="MDy1XEi2g01a_AjAgKbW-94">
          <mxGeometry relative="1" as="geometry">
            <Array as="points">
              <mxPoint x="-226" y="151" />
            </Array>
          </mxGeometry>
        </mxCell>
        <mxCell id="MDy1XEi2g01a_AjAgKbW-116" value="" style="group" connectable="0" vertex="1" parent="1">
          <mxGeometry x="724" y="-515" width="94" height="57" as="geometry" />
        </mxCell>
        <mxCell id="MDy1XEi2g01a_AjAgKbW-117" value="" style="ellipse;whiteSpace=wrap;html=1;movable=1;resizable=1;rotatable=1;deletable=1;editable=1;locked=0;connectable=1;" vertex="1" parent="MDy1XEi2g01a_AjAgKbW-116">
          <mxGeometry width="94" height="57" as="geometry" />
        </mxCell>
        <mxCell id="MDy1XEi2g01a_AjAgKbW-118" value="Monto_Total" style="text;html=1;align=center;verticalAlign=middle;whiteSpace=wrap;rounded=0;" vertex="1" parent="MDy1XEi2g01a_AjAgKbW-116">
          <mxGeometry x="17" y="13.5" width="60" height="30" as="geometry" />
        </mxCell>
        <mxCell id="MDy1XEi2g01a_AjAgKbW-119" value="" style="group" connectable="0" vertex="1" parent="1">
          <mxGeometry x="591" y="-520" width="109" height="67" as="geometry" />
        </mxCell>
        <mxCell id="MDy1XEi2g01a_AjAgKbW-104" value="" style="ellipse;whiteSpace=wrap;html=1;movable=1;resizable=1;rotatable=1;deletable=1;editable=1;locked=0;connectable=1;" vertex="1" parent="MDy1XEi2g01a_AjAgKbW-119">
          <mxGeometry width="109" height="67" as="geometry" />
        </mxCell>
        <mxCell id="MDy1XEi2g01a_AjAgKbW-105" value="Cantidad_Vendidas" style="text;html=1;align=center;verticalAlign=middle;whiteSpace=wrap;rounded=0;" vertex="1" parent="MDy1XEi2g01a_AjAgKbW-119">
          <mxGeometry x="24.5" y="18.5" width="60" height="30" as="geometry" />
        </mxCell>
        <mxCell id="MDy1XEi2g01a_AjAgKbW-123" style="edgeStyle=orthogonalEdgeStyle;rounded=0;orthogonalLoop=1;jettySize=auto;html=1;exitX=0;exitY=0;exitDx=0;exitDy=0;entryX=0.518;entryY=1.003;entryDx=0;entryDy=0;entryPerimeter=0;" edge="1" parent="1" target="MDy1XEi2g01a_AjAgKbW-62">
          <mxGeometry relative="1" as="geometry">
            <mxPoint x="580" y="-385" as="sourcePoint" />
            <mxPoint x="578" y="-544" as="targetPoint" />
            <Array as="points">
              <mxPoint x="581" y="-385" />
              <mxPoint x="581" y="-545" />
            </Array>
          </mxGeometry>
        </mxCell>
        <mxCell id="MDy1XEi2g01a_AjAgKbW-124" style="edgeStyle=orthogonalEdgeStyle;rounded=0;orthogonalLoop=1;jettySize=auto;html=1;exitX=0;exitY=0;exitDx=0;exitDy=0;entryX=0.5;entryY=1;entryDx=0;entryDy=0;" edge="1" parent="1" source="MDy1XEi2g01a_AjAgKbW-40" target="MDy1XEi2g01a_AjAgKbW-57">
          <mxGeometry relative="1" as="geometry" />
        </mxCell>
        <mxCell id="MDy1XEi2g01a_AjAgKbW-125" style="edgeStyle=orthogonalEdgeStyle;rounded=0;orthogonalLoop=1;jettySize=auto;html=1;exitX=0.5;exitY=0;exitDx=0;exitDy=0;" edge="1" parent="1" source="MDy1XEi2g01a_AjAgKbW-40" target="MDy1XEi2g01a_AjAgKbW-104">
          <mxGeometry relative="1" as="geometry">
            <Array as="points">
              <mxPoint x="646" y="-385" />
            </Array>
          </mxGeometry>
        </mxCell>
        <mxCell id="MDy1XEi2g01a_AjAgKbW-126" style="edgeStyle=orthogonalEdgeStyle;rounded=0;orthogonalLoop=1;jettySize=auto;html=1;exitX=1;exitY=0;exitDx=0;exitDy=0;entryX=0.5;entryY=1;entryDx=0;entryDy=0;" edge="1" parent="1" source="MDy1XEi2g01a_AjAgKbW-40" target="MDy1XEi2g01a_AjAgKbW-117">
          <mxGeometry relative="1" as="geometry" />
        </mxCell>
        <mxCell id="MDy1XEi2g01a_AjAgKbW-128" value="" style="group" connectable="0" vertex="1" parent="1">
          <mxGeometry x="663" y="-600" width="94" height="57" as="geometry" />
        </mxCell>
        <mxCell id="MDy1XEi2g01a_AjAgKbW-129" value="" style="ellipse;whiteSpace=wrap;html=1;movable=1;resizable=1;rotatable=1;deletable=1;editable=1;locked=0;connectable=1;" vertex="1" parent="MDy1XEi2g01a_AjAgKbW-128">
          <mxGeometry width="94" height="57" as="geometry" />
        </mxCell>
        <mxCell id="MDy1XEi2g01a_AjAgKbW-130" value="Metodo_Pago" style="text;html=1;align=center;verticalAlign=middle;whiteSpace=wrap;rounded=0;" vertex="1" parent="MDy1XEi2g01a_AjAgKbW-128">
          <mxGeometry x="17" y="13.5" width="60" height="30" as="geometry" />
        </mxCell>
        <mxCell id="MDy1XEi2g01a_AjAgKbW-131" style="edgeStyle=orthogonalEdgeStyle;rounded=0;orthogonalLoop=1;jettySize=auto;html=1;exitX=1;exitY=0;exitDx=0;exitDy=0;entryX=0.5;entryY=1;entryDx=0;entryDy=0;" edge="1" parent="1">
          <mxGeometry relative="1" as="geometry">
            <mxPoint x="700.9999999999998" y="-386" as="sourcePoint" />
            <mxPoint x="710" y="-544" as="targetPoint" />
            <Array as="points">
              <mxPoint x="701" y="-422" />
              <mxPoint x="710" y="-422" />
            </Array>
          </mxGeometry>
        </mxCell>
        <mxCell id="MDy1XEi2g01a_AjAgKbW-133" value="" style="group" connectable="0" vertex="1" parent="1">
          <mxGeometry x="-161" y="111" width="170" height="80" as="geometry" />
        </mxCell>
        <mxCell id="MDy1XEi2g01a_AjAgKbW-33" value="0..N" style="text;html=1;align=center;verticalAlign=middle;whiteSpace=wrap;rounded=0;" vertex="1" parent="MDy1XEi2g01a_AjAgKbW-133">
          <mxGeometry x="110" y="17" width="60" height="30" as="geometry" />
        </mxCell>
        <mxCell id="MDy1XEi2g01a_AjAgKbW-94" value="" style="rhombus;whiteSpace=wrap;html=1;" vertex="1" parent="MDy1XEi2g01a_AjAgKbW-133">
          <mxGeometry x="47" width="80" height="80" as="geometry" />
        </mxCell>
        <mxCell id="MDy1XEi2g01a_AjAgKbW-112" value="Contiene" style="text;html=1;align=center;verticalAlign=middle;whiteSpace=wrap;rounded=0;" vertex="1" parent="MDy1XEi2g01a_AjAgKbW-133">
          <mxGeometry x="57" y="25" width="60" height="30" as="geometry" />
        </mxCell>
        <mxCell id="MDy1XEi2g01a_AjAgKbW-132" value="1" style="text;html=1;align=center;verticalAlign=middle;whiteSpace=wrap;rounded=0;" vertex="1" parent="MDy1XEi2g01a_AjAgKbW-133">
          <mxGeometry y="17" width="60" height="30" as="geometry" />
        </mxCell>
        <mxCell id="MDy1XEi2g01a_AjAgKbW-134" value="" style="group" connectable="0" vertex="1" parent="1">
          <mxGeometry x="931" y="-298.19" width="120" height="60" as="geometry" />
        </mxCell>
        <mxCell id="MDy1XEi2g01a_AjAgKbW-135" value="" style="rounded=0;whiteSpace=wrap;html=1;" vertex="1" parent="MDy1XEi2g01a_AjAgKbW-134">
          <mxGeometry width="120" height="60" as="geometry" />
        </mxCell>
        <mxCell id="MDy1XEi2g01a_AjAgKbW-136" value="Inventario" style="text;strokeColor=none;fillColor=none;html=1;align=center;verticalAlign=middle;whiteSpace=wrap;rounded=0;fontSize=16;" vertex="1" parent="MDy1XEi2g01a_AjAgKbW-134">
          <mxGeometry x="30" y="15" width="60" height="30" as="geometry" />
        </mxCell>
        <mxCell id="MDy1XEi2g01a_AjAgKbW-30" value="Gestiona" style="text;html=1;align=center;verticalAlign=middle;whiteSpace=wrap;rounded=0;" vertex="1" parent="1">
          <mxGeometry x="132" y="-77" width="60" height="30" as="geometry" />
        </mxCell>
        <mxCell id="MDy1XEi2g01a_AjAgKbW-137" value="0..N" style="text;html=1;align=center;verticalAlign=middle;whiteSpace=wrap;rounded=0;" vertex="1" parent="1">
          <mxGeometry x="145.5" y="-29" width="60" height="30" as="geometry" />
        </mxCell>
        <mxCell id="MDy1XEi2g01a_AjAgKbW-143" style="edgeStyle=orthogonalEdgeStyle;rounded=0;orthogonalLoop=1;jettySize=auto;html=1;exitX=1;exitY=0.5;exitDx=0;exitDy=0;entryX=0;entryY=0;entryDx=0;entryDy=0;" edge="1" parent="1" source="MDy1XEi2g01a_AjAgKbW-140" target="MDy1XEi2g01a_AjAgKbW-135">
          <mxGeometry relative="1" as="geometry" />
        </mxCell>
        <mxCell id="MDy1XEi2g01a_AjAgKbW-140" value="" style="rhombus;whiteSpace=wrap;html=1;" vertex="1" parent="1">
          <mxGeometry x="767" y="-395" width="80" height="80" as="geometry" />
        </mxCell>
        <mxCell id="MDy1XEi2g01a_AjAgKbW-147" style="edgeStyle=orthogonalEdgeStyle;rounded=0;orthogonalLoop=1;jettySize=auto;html=1;exitX=0;exitY=0.5;exitDx=0;exitDy=0;entryX=0.75;entryY=0;entryDx=0;entryDy=0;" edge="1" parent="1" source="MDy1XEi2g01a_AjAgKbW-141" target="9F6NOnJwmwG0ibiyGM8l-34">
          <mxGeometry relative="1" as="geometry" />
        </mxCell>
        <mxCell id="MDy1XEi2g01a_AjAgKbW-141" value="" style="rhombus;whiteSpace=wrap;html=1;" vertex="1" parent="1">
          <mxGeometry x="767" y="-279" width="80" height="80" as="geometry" />
        </mxCell>
        <mxCell id="MDy1XEi2g01a_AjAgKbW-144" style="edgeStyle=orthogonalEdgeStyle;rounded=0;orthogonalLoop=1;jettySize=auto;html=1;exitX=1;exitY=0.5;exitDx=0;exitDy=0;entryX=0;entryY=0.5;entryDx=0;entryDy=0;" edge="1" parent="1" source="MDy1XEi2g01a_AjAgKbW-40" target="MDy1XEi2g01a_AjAgKbW-140">
          <mxGeometry relative="1" as="geometry" />
        </mxCell>
        <mxCell id="MDy1XEi2g01a_AjAgKbW-146" style="edgeStyle=orthogonalEdgeStyle;rounded=0;orthogonalLoop=1;jettySize=auto;html=1;exitX=0;exitY=1;exitDx=0;exitDy=0;entryX=1;entryY=0.5;entryDx=0;entryDy=0;" edge="1" parent="1" source="MDy1XEi2g01a_AjAgKbW-135" target="MDy1XEi2g01a_AjAgKbW-141">
          <mxGeometry relative="1" as="geometry">
            <Array as="points">
              <mxPoint x="889" y="-238" />
            </Array>
          </mxGeometry>
        </mxCell>
        <mxCell id="MDy1XEi2g01a_AjAgKbW-148" value="Impacta" style="text;html=1;align=center;verticalAlign=middle;whiteSpace=wrap;rounded=0;" vertex="1" parent="1">
          <mxGeometry x="777" y="-370" width="60" height="30" as="geometry" />
        </mxCell>
        <mxCell id="MDy1XEi2g01a_AjAgKbW-149" value="Contiene" style="text;html=1;align=center;verticalAlign=middle;whiteSpace=wrap;rounded=0;" vertex="1" parent="1">
          <mxGeometry x="777" y="-254" width="60" height="30" as="geometry" />
        </mxCell>
        <mxCell id="MDy1XEi2g01a_AjAgKbW-150" value="1" style="text;html=1;align=center;verticalAlign=middle;whiteSpace=wrap;rounded=0;" vertex="1" parent="1">
          <mxGeometry x="833" y="-262" width="60" height="30" as="geometry" />
        </mxCell>
        <mxCell id="MDy1XEi2g01a_AjAgKbW-151" value="0..N" style="text;html=1;align=center;verticalAlign=middle;whiteSpace=wrap;rounded=0;" vertex="1" parent="1">
          <mxGeometry x="724" y="-262" width="60" height="30" as="geometry" />
        </mxCell>
        <mxCell id="MDy1XEi2g01a_AjAgKbW-152" value="1..N" style="text;html=1;align=center;verticalAlign=middle;whiteSpace=wrap;rounded=0;" vertex="1" parent="1">
          <mxGeometry x="833" y="-377" width="60" height="30" as="geometry" />
        </mxCell>
        <mxCell id="MDy1XEi2g01a_AjAgKbW-153" value="1" style="text;html=1;align=center;verticalAlign=middle;whiteSpace=wrap;rounded=0;" vertex="1" parent="1">
          <mxGeometry x="719" y="-377" width="60" height="30" as="geometry" />
        </mxCell>
        <mxCell id="xSkbSQIWiU7d3ifzTPhM-1" value="" style="group;movable=1;resizable=1;rotatable=1;deletable=1;editable=1;locked=0;connectable=1;" connectable="0" vertex="1" parent="1">
          <mxGeometry x="1102" y="-441" width="101" height="60" as="geometry" />
        </mxCell>
        <mxCell id="xSkbSQIWiU7d3ifzTPhM-2" value="" style="ellipse;whiteSpace=wrap;html=1;movable=1;resizable=1;rotatable=1;deletable=1;editable=1;locked=0;connectable=1;" vertex="1" parent="xSkbSQIWiU7d3ifzTPhM-1">
          <mxGeometry width="101" height="60" as="geometry" />
        </mxCell>
        <mxCell id="xSkbSQIWiU7d3ifzTPhM-3" value="&lt;font style=&quot;font-size: 14px;&quot;&gt;ID_Prodcuto&lt;/font&gt;" style="text;strokeColor=none;fillColor=none;html=1;align=center;verticalAlign=middle;whiteSpace=wrap;rounded=0;fontSize=16;movable=1;resizable=1;rotatable=1;deletable=1;editable=1;locked=0;connectable=1;" vertex="1" parent="xSkbSQIWiU7d3ifzTPhM-1">
          <mxGeometry x="27.545454545454547" y="18.75" width="45.909090909090914" height="22.5" as="geometry" />
        </mxCell>
        <mxCell id="xSkbSQIWiU7d3ifzTPhM-4" style="edgeStyle=none;curved=1;rounded=0;orthogonalLoop=1;jettySize=auto;html=1;exitX=1;exitY=1;exitDx=0;exitDy=0;fontSize=12;startSize=8;endSize=8;movable=1;resizable=1;rotatable=1;deletable=1;editable=1;locked=0;connectable=1;" edge="1" parent="xSkbSQIWiU7d3ifzTPhM-1" source="xSkbSQIWiU7d3ifzTPhM-2" target="xSkbSQIWiU7d3ifzTPhM-2">
          <mxGeometry relative="1" as="geometry" />
        </mxCell>
        <mxCell id="xSkbSQIWiU7d3ifzTPhM-8" value="" style="group" connectable="0" vertex="1" parent="1">
          <mxGeometry x="1105" y="-332" width="117" height="70" as="geometry" />
        </mxCell>
        <mxCell id="xSkbSQIWiU7d3ifzTPhM-5" value="" style="ellipse;whiteSpace=wrap;html=1;movable=1;resizable=1;rotatable=1;deletable=1;editable=1;locked=0;connectable=1;" vertex="1" parent="xSkbSQIWiU7d3ifzTPhM-8">
          <mxGeometry width="117" height="70" as="geometry" />
        </mxCell>
        <mxCell id="xSkbSQIWiU7d3ifzTPhM-6" value="&lt;font style=&quot;font-size: 14px;&quot;&gt;Stock_Producto&lt;/font&gt;" style="text;html=1;align=center;verticalAlign=middle;whiteSpace=wrap;rounded=0;" vertex="1" parent="xSkbSQIWiU7d3ifzTPhM-8">
          <mxGeometry x="28.5" y="20" width="60" height="30" as="geometry" />
        </mxCell>
        <mxCell id="xSkbSQIWiU7d3ifzTPhM-9" style="edgeStyle=orthogonalEdgeStyle;rounded=0;orthogonalLoop=1;jettySize=auto;html=1;exitX=1;exitY=0;exitDx=0;exitDy=0;entryX=0;entryY=0.5;entryDx=0;entryDy=0;" edge="1" parent="1" source="MDy1XEi2g01a_AjAgKbW-135" target="xSkbSQIWiU7d3ifzTPhM-1">
          <mxGeometry relative="1" as="geometry">
            <mxPoint x="1012" y="-298.19000000000005" as="sourcePoint" />
            <Array as="points">
              <mxPoint x="1051" y="-411" />
            </Array>
          </mxGeometry>
        </mxCell>
        <mxCell id="xSkbSQIWiU7d3ifzTPhM-10" style="edgeStyle=orthogonalEdgeStyle;rounded=0;orthogonalLoop=1;jettySize=auto;html=1;exitX=1;exitY=0;exitDx=0;exitDy=0;entryX=-0.002;entryY=0.472;entryDx=0;entryDy=0;entryPerimeter=0;" edge="1" parent="1" source="MDy1XEi2g01a_AjAgKbW-135" target="xSkbSQIWiU7d3ifzTPhM-5">
          <mxGeometry relative="1" as="geometry">
            <mxPoint x="1012" y="-298.19000000000005" as="sourcePoint" />
            <Array as="points">
              <mxPoint x="1050" y="-298" />
            </Array>
          </mxGeometry>
        </mxCell>
        <mxCell id="xSkbSQIWiU7d3ifzTPhM-11" value="" style="group" connectable="0" vertex="1" parent="1">
          <mxGeometry x="1260" y="-441" width="94" height="57" as="geometry" />
        </mxCell>
        <mxCell id="xSkbSQIWiU7d3ifzTPhM-12" value="" style="ellipse;whiteSpace=wrap;html=1;movable=1;resizable=1;rotatable=1;deletable=1;editable=1;locked=0;connectable=1;" vertex="1" parent="xSkbSQIWiU7d3ifzTPhM-11">
          <mxGeometry width="94" height="57" as="geometry" />
        </mxCell>
        <mxCell id="xSkbSQIWiU7d3ifzTPhM-13" value="Costo" style="text;strokeColor=none;fillColor=none;html=1;align=center;verticalAlign=middle;whiteSpace=wrap;rounded=0;fontSize=16;movable=1;resizable=1;rotatable=1;deletable=1;editable=1;locked=0;connectable=1;" vertex="1" parent="xSkbSQIWiU7d3ifzTPhM-11">
          <mxGeometry x="25.636363636363626" y="17.8125" width="42.72727272727273" height="21.375" as="geometry" />
        </mxCell>
        <mxCell id="xSkbSQIWiU7d3ifzTPhM-20" value="" style="group" connectable="0" vertex="1" parent="1">
          <mxGeometry x="1112" y="-223.5" width="94" height="57" as="geometry" />
        </mxCell>
        <mxCell id="xSkbSQIWiU7d3ifzTPhM-21" value="" style="ellipse;whiteSpace=wrap;html=1;movable=1;resizable=1;rotatable=1;deletable=1;editable=1;locked=0;connectable=1;" vertex="1" parent="xSkbSQIWiU7d3ifzTPhM-20">
          <mxGeometry width="94" height="57" as="geometry" />
        </mxCell>
        <mxCell id="xSkbSQIWiU7d3ifzTPhM-22" value="Precio&lt;div&gt;Publico&lt;/div&gt;" style="text;strokeColor=none;fillColor=none;html=1;align=center;verticalAlign=middle;whiteSpace=wrap;rounded=0;fontSize=16;movable=1;resizable=1;rotatable=1;deletable=1;editable=1;locked=0;connectable=1;" vertex="1" parent="xSkbSQIWiU7d3ifzTPhM-20">
          <mxGeometry x="25.636363636363626" y="17.8125" width="42.72727272727273" height="21.375" as="geometry" />
        </mxCell>
        <mxCell id="xSkbSQIWiU7d3ifzTPhM-24" value="" style="group" connectable="0" vertex="1" parent="1">
          <mxGeometry x="1384" y="-272" width="104" height="67" as="geometry" />
        </mxCell>
        <mxCell id="xSkbSQIWiU7d3ifzTPhM-25" value="" style="ellipse;whiteSpace=wrap;html=1;movable=1;resizable=1;rotatable=1;deletable=1;editable=1;locked=0;connectable=1;" vertex="1" parent="xSkbSQIWiU7d3ifzTPhM-24">
          <mxGeometry width="104" height="67" as="geometry" />
        </mxCell>
        <mxCell id="xSkbSQIWiU7d3ifzTPhM-26" value="Contenedor" style="text;strokeColor=none;fillColor=none;html=1;align=center;verticalAlign=middle;whiteSpace=wrap;rounded=0;fontSize=16;movable=1;resizable=1;rotatable=1;deletable=1;editable=1;locked=0;connectable=1;" vertex="1" parent="xSkbSQIWiU7d3ifzTPhM-24">
          <mxGeometry x="28.363636363636353" y="20.937500000000004" width="47.27272727272727" height="25.125000000000004" as="geometry" />
        </mxCell>
        <mxCell id="xSkbSQIWiU7d3ifzTPhM-27" value="" style="group" connectable="0" vertex="1" parent="1">
          <mxGeometry x="1354" y="-387" width="167" height="68.5" as="geometry" />
        </mxCell>
        <mxCell id="xSkbSQIWiU7d3ifzTPhM-28" value="" style="ellipse;whiteSpace=wrap;html=1;movable=1;resizable=1;rotatable=1;deletable=1;editable=1;locked=0;connectable=1;" vertex="1" parent="xSkbSQIWiU7d3ifzTPhM-27">
          <mxGeometry width="167" height="68.5" as="geometry" />
        </mxCell>
        <mxCell id="xSkbSQIWiU7d3ifzTPhM-29" value="Fecha_Caducidad" style="text;strokeColor=none;fillColor=none;html=1;align=center;verticalAlign=middle;whiteSpace=wrap;rounded=0;fontSize=16;movable=1;resizable=1;rotatable=1;deletable=1;editable=1;locked=0;connectable=1;" vertex="1" parent="xSkbSQIWiU7d3ifzTPhM-27">
          <mxGeometry x="45.545454545454525" y="21.40625" width="75.9090909090909" height="25.6875" as="geometry" />
        </mxCell>
        <mxCell id="xSkbSQIWiU7d3ifzTPhM-30" value="" style="group" connectable="0" vertex="1" parent="1">
          <mxGeometry x="1285" y="-191" width="138" height="62" as="geometry" />
        </mxCell>
        <mxCell id="xSkbSQIWiU7d3ifzTPhM-31" value="" style="ellipse;whiteSpace=wrap;html=1;movable=1;resizable=1;rotatable=1;deletable=1;editable=1;locked=0;connectable=1;" vertex="1" parent="xSkbSQIWiU7d3ifzTPhM-30">
          <mxGeometry width="138" height="61.99999999999999" as="geometry" />
        </mxCell>
        <mxCell id="xSkbSQIWiU7d3ifzTPhM-32" value="Fecha_Ingreso&lt;span style=&quot;background-color: initial;&quot;&gt;&amp;nbsp;&lt;/span&gt;" style="text;strokeColor=none;fillColor=none;html=1;align=center;verticalAlign=middle;whiteSpace=wrap;rounded=0;fontSize=16;movable=1;resizable=1;rotatable=1;deletable=1;editable=1;locked=0;connectable=1;" vertex="1" parent="xSkbSQIWiU7d3ifzTPhM-30">
          <mxGeometry x="37.636363636363626" y="19.375" width="62.72727272727273" height="23.25" as="geometry" />
        </mxCell>
        <mxCell id="xSkbSQIWiU7d3ifzTPhM-33" style="edgeStyle=orthogonalEdgeStyle;rounded=0;orthogonalLoop=1;jettySize=auto;html=1;exitX=1;exitY=1;exitDx=0;exitDy=0;entryX=0;entryY=0.5;entryDx=0;entryDy=0;" edge="1" parent="1" source="MDy1XEi2g01a_AjAgKbW-135" target="xSkbSQIWiU7d3ifzTPhM-25">
          <mxGeometry relative="1" as="geometry">
            <mxPoint x="1012" y="-238.19000000000005" as="sourcePoint" />
            <Array as="points">
              <mxPoint x="1384" y="-238" />
            </Array>
          </mxGeometry>
        </mxCell>
        <mxCell id="xSkbSQIWiU7d3ifzTPhM-34" style="edgeStyle=orthogonalEdgeStyle;rounded=0;orthogonalLoop=1;jettySize=auto;html=1;exitX=1;exitY=1;exitDx=0;exitDy=0;entryX=0.009;entryY=0.503;entryDx=0;entryDy=0;entryPerimeter=0;" edge="1" parent="1" source="MDy1XEi2g01a_AjAgKbW-135" target="xSkbSQIWiU7d3ifzTPhM-31">
          <mxGeometry relative="1" as="geometry">
            <mxPoint x="1012" y="-238.19000000000005" as="sourcePoint" />
            <Array as="points">
              <mxPoint x="1219" y="-238" />
              <mxPoint x="1219" y="-160" />
            </Array>
            <mxPoint x="1287" y="-155" as="targetPoint" />
          </mxGeometry>
        </mxCell>
        <mxCell id="xSkbSQIWiU7d3ifzTPhM-35" style="edgeStyle=orthogonalEdgeStyle;rounded=0;orthogonalLoop=1;jettySize=auto;html=1;exitX=1;exitY=0;exitDx=0;exitDy=0;entryX=0.002;entryY=0.46;entryDx=0;entryDy=0;entryPerimeter=0;" edge="1" parent="1" source="MDy1XEi2g01a_AjAgKbW-135" target="xSkbSQIWiU7d3ifzTPhM-28">
          <mxGeometry relative="1" as="geometry">
            <mxPoint x="1012" y="-298.19000000000005" as="sourcePoint" />
            <Array as="points">
              <mxPoint x="1051" y="-355" />
              <mxPoint x="1354" y="-355" />
            </Array>
          </mxGeometry>
        </mxCell>
        <mxCell id="xSkbSQIWiU7d3ifzTPhM-36" style="edgeStyle=orthogonalEdgeStyle;rounded=0;orthogonalLoop=1;jettySize=auto;html=1;entryX=0;entryY=0.5;entryDx=0;entryDy=0;" edge="1" parent="1" source="MDy1XEi2g01a_AjAgKbW-135" target="xSkbSQIWiU7d3ifzTPhM-12">
          <mxGeometry relative="1" as="geometry">
            <mxPoint x="1012" y="-298.19000000000005" as="sourcePoint" />
            <Array as="points">
              <mxPoint x="1051" y="-355" />
              <mxPoint x="1237" y="-355" />
              <mxPoint x="1237" y="-413" />
            </Array>
          </mxGeometry>
        </mxCell>
        <mxCell id="xSkbSQIWiU7d3ifzTPhM-37" style="edgeStyle=orthogonalEdgeStyle;rounded=0;orthogonalLoop=1;jettySize=auto;html=1;exitX=1;exitY=1;exitDx=0;exitDy=0;entryX=0;entryY=0.5;entryDx=0;entryDy=0;" edge="1" parent="1" source="MDy1XEi2g01a_AjAgKbW-135" target="xSkbSQIWiU7d3ifzTPhM-21">
          <mxGeometry relative="1" as="geometry">
            <mxPoint x="1012" y="-238.19000000000005" as="sourcePoint" />
            <Array as="points">
              <mxPoint x="1051" y="-195" />
            </Array>
          </mxGeometry>
        </mxCell>
        <mxCell id="xSkbSQIWiU7d3ifzTPhM-38" value="" style="group" connectable="0" vertex="1" parent="1">
          <mxGeometry x="1263" y="-312" width="94" height="57" as="geometry" />
        </mxCell>
        <mxCell id="xSkbSQIWiU7d3ifzTPhM-39" value="" style="ellipse;whiteSpace=wrap;html=1;movable=1;resizable=1;rotatable=1;deletable=1;editable=1;locked=0;connectable=1;" vertex="1" parent="xSkbSQIWiU7d3ifzTPhM-38">
          <mxGeometry width="94" height="57" as="geometry" />
        </mxCell>
        <mxCell id="xSkbSQIWiU7d3ifzTPhM-40" value="Descripción" style="text;strokeColor=none;fillColor=none;html=1;align=center;verticalAlign=middle;whiteSpace=wrap;rounded=0;fontSize=16;movable=1;resizable=1;rotatable=1;deletable=1;editable=1;locked=0;connectable=1;" vertex="1" parent="xSkbSQIWiU7d3ifzTPhM-38">
          <mxGeometry x="25.636363636363626" y="17.8125" width="42.72727272727273" height="21.375" as="geometry" />
        </mxCell>
        <mxCell id="xSkbSQIWiU7d3ifzTPhM-42" style="edgeStyle=orthogonalEdgeStyle;rounded=0;orthogonalLoop=1;jettySize=auto;html=1;exitX=1;exitY=1;exitDx=0;exitDy=0;entryX=0;entryY=0.5;entryDx=0;entryDy=0;" edge="1" parent="1" source="MDy1XEi2g01a_AjAgKbW-135" target="xSkbSQIWiU7d3ifzTPhM-39">
          <mxGeometry relative="1" as="geometry">
            <Array as="points">
              <mxPoint x="1236" y="-238" />
              <mxPoint x="1236" y="-283" />
            </Array>
          </mxGeometry>
        </mxCell>
        <mxCell id="QPRDpCNhih8pYjzk8NWz-4" value="" style="group" connectable="0" vertex="1" parent="1">
          <mxGeometry x="1076" y="-520" width="138" height="62" as="geometry" />
        </mxCell>
        <mxCell id="QPRDpCNhih8pYjzk8NWz-5" value="" style="ellipse;whiteSpace=wrap;html=1;movable=1;resizable=1;rotatable=1;deletable=1;editable=1;locked=0;connectable=1;" vertex="1" parent="QPRDpCNhih8pYjzk8NWz-4">
          <mxGeometry width="138" height="61.99999999999999" as="geometry" />
        </mxCell>
        <mxCell id="QPRDpCNhih8pYjzk8NWz-6" value="Responsable" style="text;strokeColor=none;fillColor=none;html=1;align=center;verticalAlign=middle;whiteSpace=wrap;rounded=0;fontSize=16;movable=1;resizable=1;rotatable=1;deletable=1;editable=1;locked=0;connectable=1;" vertex="1" parent="QPRDpCNhih8pYjzk8NWz-4">
          <mxGeometry x="37.636363636363626" y="19.375" width="62.72727272727273" height="23.25" as="geometry" />
        </mxCell>
        <mxCell id="QPRDpCNhih8pYjzk8NWz-7" style="edgeStyle=orthogonalEdgeStyle;rounded=0;orthogonalLoop=1;jettySize=auto;html=1;exitX=1;exitY=0;exitDx=0;exitDy=0;entryX=0;entryY=0.5;entryDx=0;entryDy=0;" edge="1" parent="1" source="MDy1XEi2g01a_AjAgKbW-135" target="QPRDpCNhih8pYjzk8NWz-5">
          <mxGeometry relative="1" as="geometry" />
        </mxCell>
        <mxCell id="QPRDpCNhih8pYjzk8NWz-8" value="" style="group" connectable="0" vertex="1" parent="1">
          <mxGeometry x="1313" y="-525" width="164" height="78" as="geometry" />
        </mxCell>
        <mxCell id="QPRDpCNhih8pYjzk8NWz-9" value="" style="ellipse;whiteSpace=wrap;html=1;movable=1;resizable=1;rotatable=1;deletable=1;editable=1;locked=0;connectable=1;" vertex="1" parent="QPRDpCNhih8pYjzk8NWz-8">
          <mxGeometry width="164" height="78" as="geometry" />
        </mxCell>
        <mxCell id="QPRDpCNhih8pYjzk8NWz-10" value="Fecha_Modificación" style="text;strokeColor=none;fillColor=none;html=1;align=center;verticalAlign=middle;whiteSpace=wrap;rounded=0;fontSize=16;movable=1;resizable=1;rotatable=1;deletable=1;editable=1;locked=0;connectable=1;" vertex="1" parent="QPRDpCNhih8pYjzk8NWz-8">
          <mxGeometry x="44.72727272727271" y="24.375" width="74.54545454545453" height="29.250000000000004" as="geometry" />
        </mxCell>
        <mxCell id="QPRDpCNhih8pYjzk8NWz-11" style="edgeStyle=orthogonalEdgeStyle;rounded=0;orthogonalLoop=1;jettySize=auto;html=1;exitX=1;exitY=0;exitDx=0;exitDy=0;entryX=0;entryY=0.5;entryDx=0;entryDy=0;" edge="1" parent="1" source="MDy1XEi2g01a_AjAgKbW-135" target="QPRDpCNhih8pYjzk8NWz-9">
          <mxGeometry relative="1" as="geometry">
            <Array as="points">
              <mxPoint x="1051" y="-355" />
              <mxPoint x="1237" y="-355" />
              <mxPoint x="1237" y="-486" />
            </Array>
          </mxGeometry>
        </mxCell>
        <mxCell id="QPRDpCNhih8pYjzk8NWz-12" value="" style="group" connectable="0" vertex="1" parent="1">
          <mxGeometry x="1085" y="-140.5" width="123" height="60.5" as="geometry" />
        </mxCell>
        <mxCell id="QPRDpCNhih8pYjzk8NWz-13" value="" style="ellipse;whiteSpace=wrap;html=1;movable=1;resizable=1;rotatable=1;deletable=1;editable=1;locked=0;connectable=1;" vertex="1" parent="QPRDpCNhih8pYjzk8NWz-12">
          <mxGeometry width="123" height="60.5" as="geometry" />
        </mxCell>
        <mxCell id="QPRDpCNhih8pYjzk8NWz-14" value="Movimiento" style="text;strokeColor=none;fillColor=none;html=1;align=center;verticalAlign=middle;whiteSpace=wrap;rounded=0;fontSize=16;movable=1;resizable=1;rotatable=1;deletable=1;editable=1;locked=0;connectable=1;" vertex="1" parent="QPRDpCNhih8pYjzk8NWz-12">
          <mxGeometry x="33.545454545454525" y="18.90625" width="55.9090909090909" height="22.6875" as="geometry" />
        </mxCell>
        <mxCell id="QPRDpCNhih8pYjzk8NWz-15" style="edgeStyle=orthogonalEdgeStyle;rounded=0;orthogonalLoop=1;jettySize=auto;html=1;exitX=1;exitY=1;exitDx=0;exitDy=0;entryX=0;entryY=0.5;entryDx=0;entryDy=0;" edge="1" parent="1" source="MDy1XEi2g01a_AjAgKbW-135" target="QPRDpCNhih8pYjzk8NWz-13">
          <mxGeometry relative="1" as="geometry" />
        </mxCell>
        <mxCell id="bGLIadX0kHBUWa4-QgWf-95" value="" style="group" connectable="0" vertex="1" parent="1">
          <mxGeometry x="104" y="496" width="110" height="57" as="geometry" />
        </mxCell>
        <mxCell id="bGLIadX0kHBUWa4-QgWf-96" value="" style="ellipse;whiteSpace=wrap;html=1;" vertex="1" parent="bGLIadX0kHBUWa4-QgWf-95">
          <mxGeometry width="110" height="57" as="geometry" />
        </mxCell>
        <mxCell id="bGLIadX0kHBUWa4-QgWf-97" value="ID_Cliente" style="text;strokeColor=none;fillColor=none;html=1;align=center;verticalAlign=middle;whiteSpace=wrap;rounded=0;fontSize=16;" vertex="1" parent="bGLIadX0kHBUWa4-QgWf-95">
          <mxGeometry x="15.5" y="17.81" width="79" height="21.38" as="geometry" />
        </mxCell>
        <mxCell id="bGLIadX0kHBUWa4-QgWf-114" value="" style="group" connectable="0" vertex="1" parent="1">
          <mxGeometry x="185" y="407.19" width="94" height="57" as="geometry" />
        </mxCell>
        <mxCell id="bGLIadX0kHBUWa4-QgWf-115" value="" style="ellipse;whiteSpace=wrap;html=1;" vertex="1" parent="bGLIadX0kHBUWa4-QgWf-114">
          <mxGeometry width="94" height="57" as="geometry" />
        </mxCell>
        <mxCell id="bGLIadX0kHBUWa4-QgWf-116" value="CUIT" style="text;strokeColor=none;fillColor=none;html=1;align=center;verticalAlign=middle;whiteSpace=wrap;rounded=0;fontSize=16;" vertex="1" parent="bGLIadX0kHBUWa4-QgWf-114">
          <mxGeometry x="25.636363636363637" y="17.8125" width="42.72727272727273" height="21.375" as="geometry" />
        </mxCell>
        <mxCell id="bGLIadX0kHBUWa4-QgWf-128" value="" style="group" connectable="0" vertex="1" parent="1">
          <mxGeometry x="344" y="413.09" width="94" height="57" as="geometry" />
        </mxCell>
        <mxCell id="bGLIadX0kHBUWa4-QgWf-129" value="" style="group" connectable="0" vertex="1" parent="bGLIadX0kHBUWa4-QgWf-128">
          <mxGeometry width="94" height="57" as="geometry" />
        </mxCell>
        <mxCell id="bGLIadX0kHBUWa4-QgWf-130" value="" style="ellipse;whiteSpace=wrap;html=1;" vertex="1" parent="bGLIadX0kHBUWa4-QgWf-129">
          <mxGeometry width="94" height="57" as="geometry" />
        </mxCell>
        <mxCell id="bGLIadX0kHBUWa4-QgWf-131" value="Email" style="text;strokeColor=none;fillColor=none;html=1;align=center;verticalAlign=middle;whiteSpace=wrap;rounded=0;fontSize=16;" vertex="1" parent="bGLIadX0kHBUWa4-QgWf-129">
          <mxGeometry x="25.636363636363637" y="17.8125" width="42.72727272727273" height="21.375" as="geometry" />
        </mxCell>
        <mxCell id="MDy1XEi2g01a_AjAgKbW-80" value="" style="group" connectable="0" vertex="1" parent="1">
          <mxGeometry x="482.94633027522946" y="407.19" width="102.11009174311927" height="68.81" as="geometry" />
        </mxCell>
        <mxCell id="MDy1XEi2g01a_AjAgKbW-81" value="" style="ellipse;whiteSpace=wrap;html=1;" vertex="1" parent="MDy1XEi2g01a_AjAgKbW-80">
          <mxGeometry width="102.11009174311927" height="68.81" as="geometry" />
        </mxCell>
        <mxCell id="MDy1XEi2g01a_AjAgKbW-82" value="" style="ellipse;whiteSpace=wrap;html=1;" vertex="1" parent="MDy1XEi2g01a_AjAgKbW-80">
          <mxGeometry x="5.4036697247706424" y="5.9" width="91.3" height="57" as="geometry" />
        </mxCell>
        <mxCell id="MDy1XEi2g01a_AjAgKbW-83" value="N° Tel" style="text;strokeColor=none;fillColor=none;html=1;align=center;verticalAlign=middle;whiteSpace=wrap;rounded=0;fontSize=16;" vertex="1" parent="MDy1XEi2g01a_AjAgKbW-80">
          <mxGeometry x="26.93199717713476" y="23.719999999999946" width="48.23785462244178" height="21.38" as="geometry" />
        </mxCell>
        <mxCell id="QPRDpCNhih8pYjzk8NWz-22" value="" style="group" connectable="0" vertex="1" parent="1">
          <mxGeometry x="410" y="306.5" width="94" height="57" as="geometry" />
        </mxCell>
        <mxCell id="bGLIadX0kHBUWa4-QgWf-122" value="" style="group" connectable="0" vertex="1" parent="QPRDpCNhih8pYjzk8NWz-22">
          <mxGeometry width="94" height="57" as="geometry" />
        </mxCell>
        <mxCell id="bGLIadX0kHBUWa4-QgWf-123" value="" style="ellipse;whiteSpace=wrap;html=1;" vertex="1" parent="bGLIadX0kHBUWa4-QgWf-122">
          <mxGeometry width="94" height="57" as="geometry" />
        </mxCell>
        <mxCell id="bGLIadX0kHBUWa4-QgWf-124" value="Contacto" style="text;strokeColor=none;fillColor=none;html=1;align=center;verticalAlign=middle;whiteSpace=wrap;rounded=0;fontSize=16;" vertex="1" parent="QPRDpCNhih8pYjzk8NWz-22">
          <mxGeometry x="26.816363636363633" y="16.002499999999998" width="42.72727272727273" height="21.375" as="geometry" />
        </mxCell>
        <mxCell id="QPRDpCNhih8pYjzk8NWz-28" value="" style="group" connectable="0" vertex="1" parent="1">
          <mxGeometry x="107" y="171" width="110" height="58" as="geometry" />
        </mxCell>
        <mxCell id="bGLIadX0kHBUWa4-QgWf-80" value="" style="rounded=0;whiteSpace=wrap;html=1;" vertex="1" parent="QPRDpCNhih8pYjzk8NWz-28">
          <mxGeometry width="110" height="58" as="geometry" />
        </mxCell>
        <mxCell id="bGLIadX0kHBUWa4-QgWf-81" value="Cliente" style="text;strokeColor=none;fillColor=none;html=1;align=center;verticalAlign=middle;whiteSpace=wrap;rounded=0;fontSize=16;" vertex="1" parent="QPRDpCNhih8pYjzk8NWz-28">
          <mxGeometry x="25" y="14" width="60" height="30" as="geometry" />
        </mxCell>
        <mxCell id="QPRDpCNhih8pYjzk8NWz-29" style="edgeStyle=orthogonalEdgeStyle;rounded=0;orthogonalLoop=1;jettySize=auto;html=1;exitX=0;exitY=1;exitDx=0;exitDy=0;entryX=0.5;entryY=0;entryDx=0;entryDy=0;" edge="1" parent="1" source="bGLIadX0kHBUWa4-QgWf-80" target="bGLIadX0kHBUWa4-QgWf-93">
          <mxGeometry relative="1" as="geometry">
            <Array as="points">
              <mxPoint x="-138" y="229" />
            </Array>
          </mxGeometry>
        </mxCell>
        <mxCell id="QPRDpCNhih8pYjzk8NWz-30" style="edgeStyle=orthogonalEdgeStyle;rounded=0;orthogonalLoop=1;jettySize=auto;html=1;exitX=0;exitY=1;exitDx=0;exitDy=0;entryX=0.5;entryY=0;entryDx=0;entryDy=0;" edge="1" parent="1" source="bGLIadX0kHBUWa4-QgWf-80" target="bGLIadX0kHBUWa4-QgWf-101">
          <mxGeometry relative="1" as="geometry">
            <Array as="points">
              <mxPoint x="19" y="229" />
            </Array>
          </mxGeometry>
        </mxCell>
        <mxCell id="QPRDpCNhih8pYjzk8NWz-31" style="edgeStyle=orthogonalEdgeStyle;rounded=0;orthogonalLoop=1;jettySize=auto;html=1;exitX=0.5;exitY=1;exitDx=0;exitDy=0;entryX=0.5;entryY=0;entryDx=0;entryDy=0;" edge="1" parent="1" source="bGLIadX0kHBUWa4-QgWf-80" target="bGLIadX0kHBUWa4-QgWf-85">
          <mxGeometry relative="1" as="geometry" />
        </mxCell>
        <mxCell id="QPRDpCNhih8pYjzk8NWz-32" style="edgeStyle=orthogonalEdgeStyle;rounded=0;orthogonalLoop=1;jettySize=auto;html=1;exitX=1;exitY=1;exitDx=0;exitDy=0;entryX=0.5;entryY=0;entryDx=0;entryDy=0;" edge="1" parent="1" source="bGLIadX0kHBUWa4-QgWf-80" target="bGLIadX0kHBUWa4-QgWf-123">
          <mxGeometry relative="1" as="geometry">
            <Array as="points">
              <mxPoint x="457" y="229" />
            </Array>
          </mxGeometry>
        </mxCell>
        <mxCell id="QPRDpCNhih8pYjzk8NWz-33" style="edgeStyle=orthogonalEdgeStyle;rounded=0;orthogonalLoop=1;jettySize=auto;html=1;exitX=1;exitY=1;exitDx=0;exitDy=0;entryX=0.5;entryY=0;entryDx=0;entryDy=0;" edge="1" parent="1" source="bGLIadX0kHBUWa4-QgWf-80" target="MDy1XEi2g01a_AjAgKbW-35">
          <mxGeometry relative="1" as="geometry">
            <Array as="points">
              <mxPoint x="316" y="229" />
            </Array>
          </mxGeometry>
        </mxCell>
        <mxCell id="QPRDpCNhih8pYjzk8NWz-35" style="edgeStyle=orthogonalEdgeStyle;rounded=0;orthogonalLoop=1;jettySize=auto;html=1;exitX=0;exitY=0.5;exitDx=0;exitDy=0;entryX=0.5;entryY=0;entryDx=0;entryDy=0;" edge="1" parent="1" source="bGLIadX0kHBUWa4-QgWf-101" target="bGLIadX0kHBUWa4-QgWf-104">
          <mxGeometry relative="1" as="geometry" />
        </mxCell>
        <mxCell id="QPRDpCNhih8pYjzk8NWz-36" style="edgeStyle=orthogonalEdgeStyle;rounded=0;orthogonalLoop=1;jettySize=auto;html=1;exitX=1;exitY=0.5;exitDx=0;exitDy=0;entryX=0.5;entryY=0;entryDx=0;entryDy=0;" edge="1" parent="1" source="bGLIadX0kHBUWa4-QgWf-101" target="bGLIadX0kHBUWa4-QgWf-107">
          <mxGeometry relative="1" as="geometry">
            <Array as="points">
              <mxPoint x="93" y="333" />
            </Array>
          </mxGeometry>
        </mxCell>
        <mxCell id="QPRDpCNhih8pYjzk8NWz-38" style="edgeStyle=orthogonalEdgeStyle;rounded=0;orthogonalLoop=1;jettySize=auto;html=1;exitX=1;exitY=0.5;exitDx=0;exitDy=0;entryX=0.5;entryY=0;entryDx=0;entryDy=0;" edge="1" parent="1" source="bGLIadX0kHBUWa4-QgWf-123" target="MDy1XEi2g01a_AjAgKbW-81">
          <mxGeometry relative="1" as="geometry" />
        </mxCell>
        <mxCell id="QPRDpCNhih8pYjzk8NWz-39" style="edgeStyle=orthogonalEdgeStyle;rounded=0;orthogonalLoop=1;jettySize=auto;html=1;exitX=0;exitY=0.5;exitDx=0;exitDy=0;entryX=0.5;entryY=0;entryDx=0;entryDy=0;" edge="1" parent="1" source="bGLIadX0kHBUWa4-QgWf-123" target="bGLIadX0kHBUWa4-QgWf-130">
          <mxGeometry relative="1" as="geometry" />
        </mxCell>
        <mxCell id="QPRDpCNhih8pYjzk8NWz-40" style="edgeStyle=orthogonalEdgeStyle;rounded=0;orthogonalLoop=1;jettySize=auto;html=1;exitX=1;exitY=1;exitDx=0;exitDy=0;entryX=0.5;entryY=0;entryDx=0;entryDy=0;" edge="1" parent="1" source="bGLIadX0kHBUWa4-QgWf-80" target="bGLIadX0kHBUWa4-QgWf-115">
          <mxGeometry relative="1" as="geometry">
            <Array as="points">
              <mxPoint x="232" y="229" />
            </Array>
          </mxGeometry>
        </mxCell>
        <mxCell id="QPRDpCNhih8pYjzk8NWz-41" style="edgeStyle=orthogonalEdgeStyle;rounded=0;orthogonalLoop=1;jettySize=auto;html=1;exitX=1;exitY=1;exitDx=0;exitDy=0;entryX=0.5;entryY=0;entryDx=0;entryDy=0;" edge="1" parent="1" source="bGLIadX0kHBUWa4-QgWf-80" target="bGLIadX0kHBUWa4-QgWf-96">
          <mxGeometry relative="1" as="geometry">
            <Array as="points">
              <mxPoint x="232" y="229" />
              <mxPoint x="232" y="376" />
              <mxPoint x="159" y="376" />
            </Array>
          </mxGeometry>
        </mxCell>
        <mxCell id="QPRDpCNhih8pYjzk8NWz-42" value="" style="group" connectable="0" vertex="1" parent="1">
          <mxGeometry x="-534" y="242" width="95" height="54" as="geometry" />
        </mxCell>
        <mxCell id="QPRDpCNhih8pYjzk8NWz-43" value="" style="ellipse;whiteSpace=wrap;html=1;" vertex="1" parent="QPRDpCNhih8pYjzk8NWz-42">
          <mxGeometry x="-35.37234042553192" y="-8.059701492537313" width="130.37234042553192" height="62.05970149253732" as="geometry" />
        </mxCell>
        <mxCell id="QPRDpCNhih8pYjzk8NWz-44" value="ID_Calendario" style="text;strokeColor=none;fillColor=none;html=1;align=center;verticalAlign=middle;whiteSpace=wrap;rounded=0;fontSize=16;" vertex="1" parent="QPRDpCNhih8pYjzk8NWz-42">
          <mxGeometry x="8.222920696324955" y="14.356343283582094" width="43.18181818181818" height="17.227611940298512" as="geometry" />
        </mxCell>
        <mxCell id="MDy1XEi2g01a_AjAgKbW-18" style="edgeStyle=orthogonalEdgeStyle;rounded=0;orthogonalLoop=1;jettySize=auto;html=1;entryX=1;entryY=0.5;entryDx=0;entryDy=0;" edge="1" parent="1" target="MDy1XEi2g01a_AjAgKbW-15">
          <mxGeometry relative="1" as="geometry">
            <mxPoint x="110" y="-262" as="sourcePoint" />
            <mxPoint x="22.65999999999999" y="-133.5499999999999" as="targetPoint" />
            <Array as="points">
              <mxPoint x="110" y="-263" />
            </Array>
          </mxGeometry>
        </mxCell>
        <mxCell id="MDy1XEi2g01a_AjAgKbW-54" value="1" style="text;html=1;align=center;verticalAlign=middle;whiteSpace=wrap;rounded=0;" vertex="1" parent="1">
          <mxGeometry x="11" y="-287" width="60" height="30" as="geometry" />
        </mxCell>
        <mxCell id="QPRDpCNhih8pYjzk8NWz-49" value="" style="group" connectable="0" vertex="1" parent="1">
          <mxGeometry x="-533" y="20" width="94" height="57" as="geometry" />
        </mxCell>
        <mxCell id="QPRDpCNhih8pYjzk8NWz-50" value="" style="ellipse;whiteSpace=wrap;html=1;" vertex="1" parent="QPRDpCNhih8pYjzk8NWz-49">
          <mxGeometry width="94" height="57" as="geometry" />
        </mxCell>
        <mxCell id="QPRDpCNhih8pYjzk8NWz-51" value="Fecha" style="text;strokeColor=none;fillColor=none;html=1;align=center;verticalAlign=middle;whiteSpace=wrap;rounded=0;fontSize=16;" vertex="1" parent="QPRDpCNhih8pYjzk8NWz-49">
          <mxGeometry x="25.63636363636364" y="17.8125" width="42.72727272727273" height="21.375" as="geometry" />
        </mxCell>
        <mxCell id="QPRDpCNhih8pYjzk8NWz-52" value="" style="group" connectable="0" vertex="1" parent="1">
          <mxGeometry x="-727" y="-43" width="163" height="69" as="geometry" />
        </mxCell>
        <mxCell id="QPRDpCNhih8pYjzk8NWz-53" value="" style="ellipse;whiteSpace=wrap;html=1;" vertex="1" parent="QPRDpCNhih8pYjzk8NWz-52">
          <mxGeometry width="163" height="69" as="geometry" />
        </mxCell>
        <mxCell id="QPRDpCNhih8pYjzk8NWz-54" value="Dia_de_la_semana" style="text;strokeColor=none;fillColor=none;html=1;align=center;verticalAlign=middle;whiteSpace=wrap;rounded=0;fontSize=16;" vertex="1" parent="QPRDpCNhih8pYjzk8NWz-52">
          <mxGeometry x="44.45454545454546" y="21.5625" width="74.09090909090908" height="25.875" as="geometry" />
        </mxCell>
        <mxCell id="QPRDpCNhih8pYjzk8NWz-55" value="" style="group" connectable="0" vertex="1" parent="1">
          <mxGeometry x="-533" y="126" width="94" height="57" as="geometry" />
        </mxCell>
        <mxCell id="QPRDpCNhih8pYjzk8NWz-56" value="" style="ellipse;whiteSpace=wrap;html=1;" vertex="1" parent="QPRDpCNhih8pYjzk8NWz-55">
          <mxGeometry width="94" height="57" as="geometry" />
        </mxCell>
        <mxCell id="QPRDpCNhih8pYjzk8NWz-57" value="N°_Dia" style="text;strokeColor=none;fillColor=none;html=1;align=center;verticalAlign=middle;whiteSpace=wrap;rounded=0;fontSize=16;" vertex="1" parent="QPRDpCNhih8pYjzk8NWz-55">
          <mxGeometry x="25.63636363636364" y="17.8125" width="42.72727272727273" height="21.375" as="geometry" />
        </mxCell>
        <mxCell id="QPRDpCNhih8pYjzk8NWz-62" value="" style="group" connectable="0" vertex="1" parent="1">
          <mxGeometry x="-661" y="70" width="94" height="57" as="geometry" />
        </mxCell>
        <mxCell id="QPRDpCNhih8pYjzk8NWz-63" value="" style="ellipse;whiteSpace=wrap;html=1;" vertex="1" parent="QPRDpCNhih8pYjzk8NWz-62">
          <mxGeometry width="94" height="57" as="geometry" />
        </mxCell>
        <mxCell id="QPRDpCNhih8pYjzk8NWz-64" value="Notas" style="text;strokeColor=none;fillColor=none;html=1;align=center;verticalAlign=middle;whiteSpace=wrap;rounded=0;fontSize=16;" vertex="1" parent="QPRDpCNhih8pYjzk8NWz-62">
          <mxGeometry x="25.63636363636364" y="17.8125" width="42.72727272727273" height="21.375" as="geometry" />
        </mxCell>
        <mxCell id="QPRDpCNhih8pYjzk8NWz-68" value="" style="group" connectable="0" vertex="1" parent="1">
          <mxGeometry x="-533" y="-90.5" width="94" height="57" as="geometry" />
        </mxCell>
        <mxCell id="QPRDpCNhih8pYjzk8NWz-69" value="" style="ellipse;whiteSpace=wrap;html=1;" vertex="1" parent="QPRDpCNhih8pYjzk8NWz-68">
          <mxGeometry width="94" height="57" as="geometry" />
        </mxCell>
        <mxCell id="QPRDpCNhih8pYjzk8NWz-70" value="ID_Cliente" style="text;strokeColor=none;fillColor=none;html=1;align=center;verticalAlign=middle;whiteSpace=wrap;rounded=0;fontSize=16;" vertex="1" parent="QPRDpCNhih8pYjzk8NWz-68">
          <mxGeometry x="25.63636363636364" y="17.8125" width="42.72727272727273" height="21.375" as="geometry" />
        </mxCell>
        <mxCell id="QPRDpCNhih8pYjzk8NWz-71" value="" style="group" connectable="0" vertex="1" parent="1">
          <mxGeometry x="-707" y="176" width="100" height="64" as="geometry" />
        </mxCell>
        <mxCell id="QPRDpCNhih8pYjzk8NWz-72" value="" style="ellipse;whiteSpace=wrap;html=1;" vertex="1" parent="QPRDpCNhih8pYjzk8NWz-71">
          <mxGeometry width="100" height="64" as="geometry" />
        </mxCell>
        <mxCell id="QPRDpCNhih8pYjzk8NWz-73" value="ID_Procucto" style="text;strokeColor=none;fillColor=none;html=1;align=center;verticalAlign=middle;whiteSpace=wrap;rounded=0;fontSize=16;" vertex="1" parent="QPRDpCNhih8pYjzk8NWz-71">
          <mxGeometry x="28.63636363636364" y="21.3125" width="42.72727272727273" height="21.375" as="geometry" />
        </mxCell>
        <mxCell id="QPRDpCNhih8pYjzk8NWz-76" style="edgeStyle=orthogonalEdgeStyle;rounded=0;orthogonalLoop=1;jettySize=auto;html=1;exitX=0;exitY=0;exitDx=0;exitDy=0;entryX=1;entryY=0.5;entryDx=0;entryDy=0;" edge="1" parent="1" source="MDy1XEi2g01a_AjAgKbW-76" target="QPRDpCNhih8pYjzk8NWz-69">
          <mxGeometry relative="1" as="geometry" />
        </mxCell>
        <mxCell id="QPRDpCNhih8pYjzk8NWz-77" style="edgeStyle=orthogonalEdgeStyle;rounded=0;orthogonalLoop=1;jettySize=auto;html=1;exitX=0;exitY=0;exitDx=0;exitDy=0;entryX=1;entryY=0.5;entryDx=0;entryDy=0;" edge="1" parent="1" source="MDy1XEi2g01a_AjAgKbW-76" target="QPRDpCNhih8pYjzk8NWz-53">
          <mxGeometry relative="1" as="geometry" />
        </mxCell>
        <mxCell id="QPRDpCNhih8pYjzk8NWz-78" style="edgeStyle=orthogonalEdgeStyle;rounded=0;orthogonalLoop=1;jettySize=auto;html=1;exitX=0;exitY=0;exitDx=0;exitDy=0;entryX=1;entryY=0.5;entryDx=0;entryDy=0;" edge="1" parent="1" source="MDy1XEi2g01a_AjAgKbW-76" target="QPRDpCNhih8pYjzk8NWz-50">
          <mxGeometry relative="1" as="geometry" />
        </mxCell>
        <mxCell id="QPRDpCNhih8pYjzk8NWz-79" style="edgeStyle=orthogonalEdgeStyle;rounded=0;orthogonalLoop=1;jettySize=auto;html=1;exitX=0;exitY=0.5;exitDx=0;exitDy=0;entryX=1;entryY=0.5;entryDx=0;entryDy=0;" edge="1" parent="1" source="MDy1XEi2g01a_AjAgKbW-76" target="QPRDpCNhih8pYjzk8NWz-63">
          <mxGeometry relative="1" as="geometry" />
        </mxCell>
        <mxCell id="QPRDpCNhih8pYjzk8NWz-80" style="edgeStyle=orthogonalEdgeStyle;rounded=0;orthogonalLoop=1;jettySize=auto;html=1;exitX=0;exitY=1;exitDx=0;exitDy=0;entryX=1;entryY=0.5;entryDx=0;entryDy=0;" edge="1" parent="1" source="MDy1XEi2g01a_AjAgKbW-76" target="QPRDpCNhih8pYjzk8NWz-43">
          <mxGeometry relative="1" as="geometry" />
        </mxCell>
        <mxCell id="QPRDpCNhih8pYjzk8NWz-81" style="edgeStyle=orthogonalEdgeStyle;rounded=0;orthogonalLoop=1;jettySize=auto;html=1;exitX=0;exitY=1;exitDx=0;exitDy=0;entryX=1;entryY=0.5;entryDx=0;entryDy=0;" edge="1" parent="1" source="MDy1XEi2g01a_AjAgKbW-76" target="QPRDpCNhih8pYjzk8NWz-72">
          <mxGeometry relative="1" as="geometry" />
        </mxCell>
        <mxCell id="QPRDpCNhih8pYjzk8NWz-82" style="edgeStyle=orthogonalEdgeStyle;rounded=0;orthogonalLoop=1;jettySize=auto;html=1;exitX=0;exitY=1;exitDx=0;exitDy=0;entryX=1;entryY=0.5;entryDx=0;entryDy=0;" edge="1" parent="1" source="MDy1XEi2g01a_AjAgKbW-76" target="QPRDpCNhih8pYjzk8NWz-56">
          <mxGeometry relative="1" as="geometry" />
        </mxCell>
        <mxCell id="QPRDpCNhih8pYjzk8NWz-85" style="edgeStyle=orthogonalEdgeStyle;rounded=0;orthogonalLoop=1;jettySize=auto;html=1;exitX=0.5;exitY=0;exitDx=0;exitDy=0;entryX=0.562;entryY=0.988;entryDx=0;entryDy=0;entryPerimeter=0;" edge="1" parent="1" source="bGLIadX0kHBUWa4-QgWf-57" target="i5Qo9Ydj3Eo_f_7UgnNF-54">
          <mxGeometry relative="1" as="geometry">
            <Array as="points">
              <mxPoint x="162" y="-332" />
              <mxPoint x="236" y="-332" />
            </Array>
          </mxGeometry>
        </mxCell>
        <mxCell id="QPRDpCNhih8pYjzk8NWz-86" style="edgeStyle=orthogonalEdgeStyle;rounded=0;orthogonalLoop=1;jettySize=auto;html=1;exitX=0.5;exitY=0;exitDx=0;exitDy=0;entryX=0.5;entryY=1;entryDx=0;entryDy=0;" edge="1" parent="1" source="bGLIadX0kHBUWa4-QgWf-58" target="i5Qo9Ydj3Eo_f_7UgnNF-65">
          <mxGeometry relative="1" as="geometry">
            <Array as="points">
              <mxPoint x="162" y="-332" />
              <mxPoint x="82" y="-332" />
            </Array>
          </mxGeometry>
        </mxCell>
        <mxCell id="QPRDpCNhih8pYjzk8NWz-90" style="edgeStyle=orthogonalEdgeStyle;rounded=0;orthogonalLoop=1;jettySize=auto;html=1;exitX=1;exitY=0;exitDx=0;exitDy=0;entryX=0;entryY=0.5;entryDx=0;entryDy=0;" edge="1" parent="1" source="9F6NOnJwmwG0ibiyGM8l-34" target="MDy1XEi2g01a_AjAgKbW-8">
          <mxGeometry relative="1" as="geometry">
            <Array as="points">
              <mxPoint x="701" y="-43" />
              <mxPoint x="869" y="-43" />
              <mxPoint x="869" y="-93" />
            </Array>
          </mxGeometry>
        </mxCell>
        <mxCell id="QPRDpCNhih8pYjzk8NWz-91" value="" style="group" connectable="0" vertex="1" parent="1">
          <mxGeometry x="758" y="-117" width="94" height="57" as="geometry" />
        </mxCell>
        <mxCell id="9F6NOnJwmwG0ibiyGM8l-37" value="" style="ellipse;whiteSpace=wrap;html=1;movable=1;resizable=1;rotatable=1;deletable=1;editable=1;locked=0;connectable=1;" vertex="1" parent="QPRDpCNhih8pYjzk8NWz-91">
          <mxGeometry width="94" height="57" as="geometry" />
        </mxCell>
        <mxCell id="9F6NOnJwmwG0ibiyGM8l-38" value="Nombre" style="text;strokeColor=none;fillColor=none;html=1;align=center;verticalAlign=middle;whiteSpace=wrap;rounded=0;fontSize=16;movable=1;resizable=1;rotatable=1;deletable=1;editable=1;locked=0;connectable=1;" vertex="1" parent="QPRDpCNhih8pYjzk8NWz-91">
          <mxGeometry x="25.636363636363626" y="17.8125" width="42.72727272727273" height="21.375" as="geometry" />
        </mxCell>
      </root>
    </mxGraphModel>
  </diagram>
</mxfile>
